<?xml version="1.0" standalone="no"?>
<!DOCTYPE svg PUBLIC "-//W3C//DTD SVG 20010904//EN"
 "http://www.w3.org/TR/2001/REC-SVG-20010904/DTD/svg10.dtd">
<svg version="1.0" xmlns="http://www.w3.org/2000/svg"
 width="2444.000000pt" height="1088.000000pt" viewBox="0 0 2444.000000 1088.000000"
 preserveAspectRatio="xMidYMid meet">

<g transform="translate(0.000000,1088.000000) scale(0.100000,-0.100000)"
fill="#000000" stroke="none">
<path d="M8697 9113 c-9 -8 -9 -134 0 -376 l6 -187 276 2 276 3 0 280 0 280
-276 3 c-151 1 -278 -1 -282 -5z"/>
<path d="M13864 8901 c-55 -25 -82 -74 -90 -162 l-7 -69 -38 0 -39 0 0 -46 c0
-43 1 -45 28 -44 67 5 62 21 62 -205 l0 -205 50 0 50 0 0 205 0 205 100 0 100
0 0 -165 c0 -184 7 -213 60 -240 29 -15 106 -20 146 -9 17 5 21 13 21 50 0 48
0 48 -27 34 -27 -15 -76 6 -89 38 -7 17 -11 77 -9 157 l3 130 59 5 59 5 1 40
1 40 -60 5 -60 5 -3 71 -3 72 -49 -16 -49 -16 -3 -55 -3 -56 -97 -3 -98 -3 0
56 c0 50 4 60 30 87 27 26 36 30 68 24 l37 -5 -3 44 -4 45 -52 0 c-28 0 -69
-9 -92 -19z"/>
<path d="M11190 8872 c-29 -24 -32 -78 -5 -98 25 -19 70 -18 89 2 19 19 21 77
3 92 -26 22 -63 24 -87 4z"/>
<path d="M10285 8520 l0 -350 54 0 54 0 -5 290 c-3 201 -1 289 6 287 6 -2 14
-19 18 -38 5 -26 123 -328 205 -526 3 -8 23 -13 47 -13 l41 0 59 153 c33 83
72 186 88 227 17 41 40 107 53 145 13 39 25 66 26 60 1 -5 1 -139 -1 -297 l-2
-288 58 0 59 0 0 350 0 350 -81 0 -80 0 -22 -52 c-60 -149 -171 -436 -177
-460 -11 -45 -29 -32 -52 40 -11 37 -55 153 -97 259 -42 106 -76 197 -76 203
0 6 -33 10 -87 10 l-88 0 0 -350z"/>
<path d="M11560 8671 c-69 -21 -121 -65 -156 -131 -15 -27 -19 -56 -19 -130 0
-82 3 -100 23 -132 56 -89 128 -123 247 -116 98 6 111 15 107 71 l-4 44 -54
-20 c-51 -19 -59 -19 -101 -6 -31 10 -56 27 -76 52 -59 73 -44 208 30 262 36
26 131 33 172 12 l31 -15 0 48 c0 45 -2 49 -31 59 -36 12 -131 13 -169 2z"/>
<path d="M12064 8666 c-17 -8 -41 -28 -53 -45 -27 -38 -44 -31 -35 15 l6 34
-56 0 -56 0 0 -250 0 -250 55 0 55 0 0 155 c0 121 3 162 16 188 23 48 66 71
118 64 l41 -6 -2 47 c-1 26 -2 50 -2 55 -1 11 -53 7 -87 -7z"/>
<path d="M12315 8657 c-87 -42 -124 -99 -139 -212 -8 -63 15 -156 51 -203 53
-70 186 -102 296 -71 55 15 132 93 148 149 17 59 16 167 -1 211 -39 98 -103
140 -225 146 -69 4 -87 1 -130 -20z m199 -88 c42 -33 60 -77 60 -149 0 -88
-30 -143 -91 -166 -37 -15 -50 -15 -86 -4 -78 23 -107 67 -107 165 0 81 19
129 62 155 46 28 126 27 162 -1z"/>
<path d="M12845 8658 c-55 -27 -78 -62 -82 -122 -6 -74 18 -106 109 -149 89
-43 111 -65 102 -102 -12 -47 -79 -58 -164 -26 l-50 19 0 -48 c0 -48 1 -49 38
-59 58 -17 152 -13 197 8 66 30 80 53 80 131 0 83 -10 97 -109 144 -83 39 -99
54 -94 93 6 53 84 66 171 28 16 -7 18 -3 15 41 -3 42 -6 49 -28 55 -52 15
-144 8 -185 -13z"/>
<path d="M13307 8663 c-162 -54 -212 -314 -83 -438 48 -47 99 -65 181 -65 114
0 189 44 231 134 48 102 24 272 -46 330 -68 55 -185 72 -283 39z m173 -88 c45
-23 70 -81 70 -163 0 -55 -5 -76 -23 -103 -49 -74 -145 -87 -211 -28 -73 64
-74 203 -1 276 29 29 40 33 84 33 29 0 65 -7 81 -15z"/>
<path d="M11170 8420 l0 -250 55 0 55 0 0 250 0 250 -55 0 -55 0 0 -250z"/>
<path d="M8700 8200 c0 -156 3 -281 6 -278 6 7 5 550 -1 557 -3 2 -5 -123 -5
-279z"/>
<path d="M8738 8473 c7 -3 16 -2 19 1 4 3 -2 6 -13 5 -11 0 -14 -3 -6 -6z"/>
<path d="M8818 8473 c29 -2 74 -2 100 0 26 2 2 3 -53 3 -55 0 -76 -1 -47 -3z"/>
<path d="M9053 8473 c20 -2 54 -2 75 0 20 2 3 4 -38 4 -41 0 -58 -2 -37 -4z"/>
<path d="M9235 8470 c3 -5 8 -10 11 -10 2 0 4 5 4 10 0 6 -5 10 -11 10 -5 0
-7 -4 -4 -10z"/>
<path d="M9143 7933 c9 -2 25 -2 35 0 9 3 1 5 -18 5 -19 0 -27 -2 -17 -5z"/>
<path d="M17383 5802 c-18 -11 -68 -136 -95 -233 -20 -73 -23 -106 -22 -254 1
-154 3 -178 27 -258 15 -48 40 -117 56 -152 l30 -65 55 0 c42 0 56 4 56 14 0
8 -13 55 -30 103 -81 244 -81 497 2 741 27 79 30 95 17 103 -17 11 -79 12 -96
1z"/>
<path d="M18990 5800 c-13 -8 -11 -20 12 -87 45 -126 58 -200 65 -343 6 -156
-9 -264 -57 -408 -42 -125 -42 -124 27 -120 l58 3 32 75 c62 147 78 227 77
405 0 131 -4 174 -22 237 -26 97 -79 230 -95 240 -17 11 -79 10 -97 -2z"/>
<path d="M10811 5776 c-8 -9 -11 -117 -9 -377 l3 -364 65 0 65 0 5 132 5 132
60 -96 c33 -53 73 -114 88 -135 l28 -39 67 3 c54 2 67 6 66 19 -1 9 -37 72
-81 140 -43 68 -82 129 -86 135 -3 6 30 53 73 104 44 51 80 99 80 105 0 27
-103 34 -137 10 -11 -8 -51 -56 -89 -107 l-69 -92 -3 214 c-2 156 -6 216 -15
222 -20 13 -104 9 -116 -6z"/>
<path d="M11625 5778 c-3 -7 -4 -177 -3 -378 l3 -365 60 0 60 0 0 375 0 375
-58 3 c-40 2 -59 -1 -62 -10z"/>
<path d="M11902 5782 c-9 -7 -12 -89 -10 -378 l3 -369 65 0 65 0 3 369 c2 289
-1 371 -10 378 -7 4 -33 8 -58 8 -25 0 -51 -4 -58 -8z"/>
<path d="M8746 5757 c-13 -10 -19 -27 -19 -57 0 -53 20 -70 79 -70 55 0 74 19
74 75 0 34 -5 47 -19 55 -28 14 -94 13 -115 -3z"/>
<path d="M11347 5752 c-23 -25 -22 -85 1 -105 29 -26 107 -23 126 5 22 30 20
81 -2 101 -26 24 -104 23 -125 -1z"/>
<path d="M13778 5759 c-13 -7 -18 -23 -18 -59 0 -56 15 -70 75 -70 60 0 75 14
75 68 0 27 -5 53 -12 60 -15 15 -96 15 -120 1z"/>
<path d="M14436 5754 c-9 -9 -16 -32 -16 -54 0 -22 7 -45 16 -54 18 -18 85
-21 114 -6 27 15 36 74 16 105 -14 21 -24 25 -66 25 -31 0 -54 -6 -64 -16z"/>
<path d="M15658 5759 c-27 -15 -25 -104 1 -119 30 -15 97 -12 115 6 19 18 22
94 4 112 -15 15 -96 15 -120 1z"/>
<path d="M10396 5738 c-21 -6 -58 -29 -81 -52 -64 -62 -81 -144 -46 -221 24
-54 62 -84 164 -133 89 -42 117 -69 117 -112 0 -88 -138 -115 -249 -49 -46 27
-61 19 -61 -31 0 -59 13 -76 75 -99 100 -38 235 -23 311 35 68 50 93 166 55
250 -22 49 -65 83 -153 123 -92 42 -128 75 -128 115 0 71 78 94 181 52 35 -14
67 -22 72 -17 4 4 7 30 5 57 -3 46 -5 50 -42 68 -47 23 -163 30 -220 14z"/>
<path d="M18280 5735 c-112 -35 -170 -164 -121 -270 24 -53 69 -90 159 -132
87 -39 122 -71 122 -110 0 -91 -136 -119 -249 -52 -50 29 -63 20 -59 -43 3
-51 4 -54 48 -78 40 -22 57 -25 145 -25 92 0 104 2 155 30 45 25 60 40 83 84
32 65 35 127 8 187 -23 51 -64 83 -164 128 -42 19 -85 44 -97 56 -27 27 -27
81 1 106 29 26 109 24 173 -4 26 -12 52 -19 57 -16 13 8 11 88 -3 106 -33 43
-170 60 -258 33z"/>
<path d="M5262 5728 c-17 -17 -17 -669 0 -686 8 -8 68 -12 204 -12 l192 0 6
24 c3 13 3 38 0 55 l-6 31 -134 0 -134 0 0 100 0 99 113 3 112 3 3 53 3 52
-115 0 -116 0 0 85 0 85 123 0 c67 0 128 4 135 9 9 5 12 25 10 57 l-3 49 -190
3 c-140 2 -194 -1 -203 -10z"/>
<path d="M12882 5728 c-19 -19 -17 -671 2 -687 9 -7 38 -11 73 -9 l58 3 3 344
c2 269 -1 346 -10 353 -20 12 -113 9 -126 -4z"/>
<path d="M17640 5730 c-13 -8 -15 -58 -15 -345 0 -287 2 -337 15 -345 9 -6 96
-9 205 -7 l190 2 0 50 0 50 -132 3 -133 3 0 99 0 99 113 3 112 3 0 50 0 50
-112 3 -113 3 0 84 0 85 124 0 c141 0 149 4 144 72 l-3 43 -190 2 c-109 2
-196 -1 -205 -7z"/>
<path d="M18712 5732 c-9 -7 -12 -84 -10 -353 l3 -344 60 -3 c42 -2 62 1 70
11 7 9 8 129 5 353 l-5 339 -55 3 c-30 1 -61 -2 -68 -6z"/>
<path d="M6428 5683 c-15 -4 -18 -16 -18 -64 0 -58 0 -59 -28 -59 -37 0 -52
-17 -52 -60 0 -43 14 -60 51 -60 l27 0 4 -164 c3 -148 5 -167 24 -193 41 -56
143 -81 209 -51 22 10 25 17 25 65 0 53 0 53 -27 46 -83 -21 -93 -2 -93 163
l0 133 58 3 57 3 3 49 c4 58 -4 66 -70 66 l-48 0 0 55 c0 43 -4 56 -19 65 -20
10 -71 12 -103 3z"/>
<path d="M14090 5683 c-24 -9 -30 -25 -30 -75 0 -43 -2 -48 -22 -48 -38 0 -51
-15 -51 -58 0 -51 8 -62 42 -62 l28 0 5 -159 c6 -180 16 -212 78 -243 41 -21
124 -23 160 -5 22 11 25 19 25 62 0 44 -2 50 -20 47 -51 -7 -70 -3 -87 18 -15
19 -18 42 -18 151 l0 129 53 0 c62 0 77 11 77 60 0 49 -15 60 -77 60 l-53 0 0
59 c0 52 -2 59 -22 65 -28 7 -67 7 -88 -1z"/>
<path d="M15298 5679 c-14 -8 -18 -23 -18 -64 0 -54 -1 -55 -28 -55 -37 0 -52
-17 -52 -60 0 -43 14 -60 51 -60 l27 0 4 -164 c3 -148 5 -167 24 -193 28 -39
80 -63 136 -63 85 0 116 29 102 98 -6 28 -7 29 -52 24 -67 -7 -72 4 -72 164
l0 133 57 3 c52 3 57 5 64 31 4 15 4 39 0 55 -7 25 -12 27 -64 30 l-57 3 0 54
c0 43 -4 56 -19 65 -25 13 -81 13 -103 -1z"/>
<path d="M6020 5558 c-19 -5 -52 -23 -72 -39 -20 -16 -39 -29 -42 -29 -3 0 -6
13 -6 29 0 40 -53 56 -101 31 -18 -10 -19 -24 -19 -253 0 -133 4 -248 9 -255
5 -9 26 -12 67 -10 l59 3 5 172 c5 163 6 173 28 196 37 39 76 52 111 37 16 -6
33 -19 38 -28 4 -10 10 -98 13 -197 l5 -180 65 0 65 0 3 183 c1 107 -2 200 -8
223 -15 53 -61 103 -108 117 -46 14 -64 14 -112 0z"/>
<path d="M6926 5559 c-40 -10 -97 -47 -128 -84 -55 -66 -65 -259 -18 -345 28
-50 74 -85 134 -101 53 -15 200 -6 249 14 35 15 37 18 37 63 0 52 13 50 -116
24 -111 -23 -180 9 -191 87 l-6 42 164 3 164 3 3 60 c2 33 -2 77 -8 98 -13 46
-65 106 -105 123 -43 18 -134 24 -179 13z m108 -99 c27 -10 56 -56 56 -90 0
-19 -6 -20 -100 -20 -97 0 -100 1 -100 23 1 70 74 114 144 87z"/>
<path d="M7550 5563 c-8 -3 -32 -22 -52 -41 -38 -36 -38 -36 -38 -11 0 34 -18
49 -59 49 -63 0 -62 8 -59 -271 l3 -254 59 -3 c41 -2 62 1 67 10 5 7 9 83 9
168 l0 156 29 31 c30 33 55 43 106 40 30 -2 30 -2 33 56 3 54 1 58 -23 67 -28
11 -51 12 -75 3z"/>
<path d="M7981 5560 c-18 -4 -53 -22 -78 -39 -24 -17 -46 -31 -48 -31 -3 0 -5
13 -5 29 0 30 -14 41 -55 41 -58 0 -55 19 -55 -365 0 -392 -5 -365 68 -365 20
0 42 4 49 8 7 4 12 48 15 114 1 58 6 109 9 113 4 3 24 -5 44 -20 74 -50 196
-24 248 53 38 56 50 108 50 207 0 122 -35 205 -103 240 -35 18 -99 25 -139 15z
m59 -130 c30 -30 40 -63 40 -137 0 -80 -22 -130 -64 -148 -37 -16 -69 -6 -113
38 -31 29 -33 35 -33 105 0 85 7 103 58 137 44 30 85 32 112 5z"/>
<path d="M8538 5556 c-16 -8 -39 -27 -53 -43 -23 -27 -24 -27 -25 -6 0 31 -26
53 -63 53 -59 0 -58 6 -55 -271 l3 -254 55 -3 c78 -5 80 1 80 183 l0 151 29
31 c30 33 55 43 106 40 30 -2 30 -2 33 56 3 54 1 58 -23 67 -36 14 -55 13 -87
-4z"/>
<path d="M9099 5554 c-55 -16 -108 -71 -111 -112 -5 -104 14 -133 129 -188 75
-36 94 -50 99 -71 15 -59 -85 -84 -167 -42 -23 11 -47 18 -55 15 -21 -8 -18
-79 4 -99 46 -42 209 -48 274 -10 51 30 78 77 78 137 0 81 -34 119 -143 163
-61 24 -97 52 -97 75 0 5 9 17 20 28 25 25 69 26 133 3 42 -15 49 -15 57 -3
31 48 -4 96 -79 110 -68 13 -85 12 -142 -6z"/>
<path d="M9617 5560 c-122 -31 -187 -126 -187 -275 0 -117 41 -198 121 -241
46 -26 235 -27 292 -2 35 16 37 20 37 62 0 53 -5 55 -84 31 -102 -31 -186 -11
-211 49 -8 20 -15 45 -15 56 0 19 6 20 160 20 l160 0 12 26 c17 37 -3 145 -37
196 -43 64 -157 100 -248 78z m124 -119 c19 -20 29 -40 29 -60 l0 -31 -100 0
c-110 0 -114 3 -85 60 34 66 106 80 156 31z"/>
<path d="M12274 5561 c-80 -20 -134 -81 -134 -150 0 -76 48 -128 150 -167 79
-29 105 -77 62 -111 -23 -19 -101 -15 -151 7 -24 11 -47 20 -52 20 -5 0 -9
-22 -9 -50 0 -46 3 -51 33 -67 49 -27 198 -25 252 3 78 40 108 154 58 223 -10
14 -55 44 -99 66 -95 47 -114 61 -114 86 0 47 84 63 157 30 23 -11 44 -17 47
-13 3 3 6 25 6 48 0 38 -4 46 -28 58 -35 18 -136 28 -178 17z"/>
<path d="M13400 5558 c-19 -5 -52 -23 -72 -39 -20 -16 -39 -29 -42 -29 -3 0
-6 13 -6 29 0 40 -53 56 -101 31 -18 -10 -19 -24 -19 -253 0 -133 4 -248 9
-255 5 -9 26 -12 67 -10 l59 3 5 172 c5 163 6 173 28 196 37 39 76 52 111 37
16 -6 33 -19 38 -28 4 -10 10 -98 13 -197 l5 -180 65 0 65 0 3 183 c1 107 -2
200 -8 223 -16 57 -61 104 -114 118 -52 13 -59 13 -106 -1z"/>
<path d="M14855 5563 c-128 -19 -180 -67 -145 -133 10 -18 12 -18 70 6 76 31
152 32 180 4 13 -13 20 -33 20 -60 l0 -40 -63 0 c-77 0 -156 -22 -195 -55 -62
-52 -60 -169 4 -224 59 -52 175 -56 237 -8 36 27 47 26 47 -5 0 -17 7 -19 53
-16 l52 3 0 210 c0 237 -6 259 -76 295 -37 19 -132 31 -184 23z m125 -353 c0
-46 -3 -52 -32 -70 -65 -39 -138 -17 -138 41 0 33 21 57 58 65 15 3 32 7 37 9
6 2 25 4 43 4 32 1 32 1 32 -49z"/>
<path d="M16597 5556 c-27 -7 -61 -22 -75 -33 -67 -50 -110 -174 -98 -281 18
-151 102 -222 262 -222 78 0 159 17 180 37 9 10 14 29 12 52 -3 41 -6 42 -121
20 -57 -11 -74 -11 -109 1 -46 17 -75 50 -84 98 l-6 32 159 0 c110 0 163 4
171 12 28 28 10 149 -31 209 -47 69 -162 102 -260 75z m123 -101 c25 -13 50
-61 50 -97 0 -5 -47 -8 -105 -8 l-105 0 6 28 c19 80 84 113 154 77z"/>
<path d="M8748 5549 c-16 -9 -18 -32 -18 -248 0 -177 3 -242 13 -255 10 -13
24 -17 67 -14 l55 3 3 254 c2 197 -1 256 -10 263 -18 11 -90 9 -110 -3z"/>
<path d="M11357 5553 c-16 -4 -17 -23 -15 -261 l3 -257 65 0 65 0 3 256 2 257
-22 6 c-26 6 -74 6 -101 -1z"/>
<path d="M13782 5552 c-9 -7 -12 -66 -10 -263 l3 -254 60 0 60 0 3 254 c2 197
-1 256 -10 263 -7 4 -31 8 -53 8 -22 0 -46 -4 -53 -8z"/>
<path d="M14447 5553 c-16 -4 -17 -23 -15 -261 l3 -257 65 0 65 0 3 250 c2
226 1 251 -15 263 -16 12 -70 14 -106 5z"/>
<path d="M15662 5552 c-9 -7 -12 -66 -10 -263 l3 -254 60 0 60 0 3 254 c2 197
-1 256 -10 263 -7 4 -31 8 -53 8 -22 0 -46 -4 -53 -8z"/>
<path d="M15871 5546 c-9 -10 8 -71 71 -262 l83 -249 87 -3 c75 -2 88 0 96 15
6 10 45 125 88 256 86 262 86 257 11 257 -21 0 -46 -4 -56 -9 -11 -6 -35 -69
-71 -190 -30 -100 -57 -181 -60 -181 -3 0 -29 80 -59 178 -29 97 -61 183 -69
190 -21 16 -107 16 -121 -2z"/>
<path d="M10887 2944 c-4 -4 -7 -196 -7 -426 l0 -418 105 0 105 0 -2 423 -3
422 -95 3 c-53 1 -99 0 -103 -4z"/>
<path d="M11880 2880 l0 -70 105 0 106 0 -3 68 -3 67 -102 3 -103 3 0 -71z"/>
<path d="M9435 2928 c-3 -7 -4 -195 -3 -418 l3 -405 205 1 c226 1 251 6 345
72 46 32 109 120 127 176 18 56 26 189 17 265 -18 145 -90 242 -222 294 -45
18 -80 21 -259 25 -168 3 -209 1 -213 -10z m380 -193 c27 -14 46 -34 63 -65
21 -41 23 -55 20 -156 -3 -102 -5 -114 -31 -153 -33 -49 -72 -69 -148 -73
l-54 -3 -3 239 -2 238 57 -4 c32 -2 76 -13 98 -23z"/>
<path d="M12344 2905 c-45 -7 -86 -15 -93 -19 -6 -4 -11 -37 -11 -82 l0 -74
-35 0 -35 0 0 -85 0 -85 35 0 35 0 0 -142 c0 -213 29 -289 118 -319 43 -14
208 -8 240 9 20 12 22 20 22 92 l0 79 -32 -10 c-56 -16 -106 -11 -118 10 -5
11 -10 78 -10 150 l0 130 68 3 67 3 0 80 0 80 -67 3 -68 3 0 94 c0 109 12 100
-116 80z"/>
<path d="M12850 2909 c-117 -15 -110 -8 -110 -99 l0 -80 -40 0 -40 0 0 -85 0
-85 40 0 40 0 0 -168 c0 -154 2 -171 23 -212 38 -75 61 -85 190 -85 151 0 157
4 157 100 l0 74 -62 -5 c-36 -3 -70 -1 -78 5 -12 8 -16 40 -18 150 l-3 140 68
3 68 3 0 80 0 80 -67 3 -68 3 0 94 c0 84 -2 95 -17 94 -10 -1 -47 -5 -83 -10z"/>
<path d="M10419 2731 c-51 -10 -124 -56 -153 -94 -47 -62 -61 -114 -61 -227 0
-89 4 -112 23 -155 62 -131 177 -181 379 -163 89 8 143 29 143 56 0 9 -6 40
-14 67 -10 40 -17 50 -32 48 -10 -2 -51 -8 -90 -14 -51 -8 -81 -8 -111 0 -44
12 -83 51 -83 82 0 17 13 19 188 21 l187 3 3 50 c4 64 -14 170 -35 204 -52 83
-120 120 -231 126 -42 2 -93 1 -113 -4z m152 -170 c16 -16 29 -39 29 -50 0
-20 -6 -21 -91 -21 l-91 0 6 28 c4 15 18 37 32 50 36 31 79 29 115 -7z"/>
<path d="M11399 2730 c-85 -15 -162 -79 -199 -165 -33 -76 -31 -229 3 -305 27
-62 81 -120 136 -147 28 -14 60 -18 146 -18 103 0 113 2 158 29 102 61 142
145 141 296 0 107 -18 159 -74 224 -66 75 -188 109 -311 86z m140 -179 c41
-41 40 -234 -1 -278 -44 -46 -114 -23 -137 46 -25 75 -6 219 32 243 24 15 87
8 106 -11z"/>
<path d="M13384 2731 c-44 -7 -119 -48 -146 -78 -9 -10 -30 -45 -45 -78 -25
-54 -28 -71 -28 -165 0 -85 4 -114 21 -151 29 -63 74 -110 131 -139 44 -23 59
-25 188 -25 115 0 146 3 173 18 36 19 38 31 20 107 -10 45 -14 51 -32 46 -69
-19 -165 -27 -203 -17 -44 12 -83 51 -83 82 0 17 13 19 188 21 l187 3 -1 95
c0 82 -4 102 -27 146 -29 57 -71 97 -125 120 -42 17 -160 26 -218 15z m129
-152 c25 -11 47 -47 47 -74 0 -12 -17 -15 -84 -15 -47 0 -88 4 -91 10 -8 13
21 67 42 79 24 14 56 14 86 0z"/>
<path d="M11880 2415 l0 -316 103 3 102 3 0 310 0 310 -102 3 -103 3 0 -316z"/>
</g>
</svg>
