<svg width="1440" height="426" xmlns="http://www.w3.org/2000/svg" xmlns:xlink="http://www.w3.org/1999/xlink"><defs><path id="a" d="M0 0h1440v426H0z"/></defs><g fill="none" fill-rule="evenodd"><mask id="b" fill="#fff"><use xlink:href="#a"/></mask><path stroke="#979797" d="M.5.5h1439v425H.5z"/><path fill-opacity=".3" fill="#2A5450" style="mix-blend-mode:multiply" mask="url(#b)" d="M1228.492-320L887.119-121.74 886 272.799 1229.508 471l341.372-198.26L1572-121.8z"/><g mask="url(#b)"><g transform="translate(838 -18)"><path d="M386.537 129.826l-1.9.956-1.436-1.248-2.062.817-1.807-1.295-1.69.863-1.61-1.4a3.64 3.64 0 00.069 1.33l3.231 7.558c.184.326.511.542.88.583.365.048.73-.082.985-.35l4.946-6.555a3.81 3.81 0 00.394-1.26L387 126l-.463 3.826z" fill="#0266AB" fill-rule="nonzero"/><path d="M380.257 139h-.222a1.871 1.871 0 01-1.386-.896l-3.488-7.803a4.01 4.01 0 01-.123-1.672l.148-1.1 2.276 1.888 1.78-.86 1.955 1.35 2.239-.86 1.509 1.195 1.36-.657.458-3.585 1.237.143-.557 4.242c-.073.471-.255.92-.531 1.314l-5.232 6.656c-.358.4-.875.635-1.423.645zm-3.81-8.854l3.303 7.408c.106.14.267.231.445.251a.681.681 0 00.532-.191l4.948-6.369-.977.478-1.571-1.302-2.165.812-1.892-1.302-1.856.896-.766-.68z" fill="#0266AB" fill-rule="nonzero"/><path d="M433.59 321.998h-18.004c-6.399 0-11.586-5.164-11.586-11.536 0-6.37 5.187-11.536 11.586-11.536a9.34 9.34 0 011.288.085c2.736-8.322 11.248-13.332 19.89-11.706l.753.134-.316.702a3.956 3.956 0 00-.377 1.658c0 3.002 3.806 6.053 10.176 8.001l-.365 1.21c-4.753-1.452-8.133-3.425-9.81-5.628v11.137c.052 1.13.525 2.2 1.325 3.002l.352.4-.352.399a4.832 4.832 0 00-1.326 3.099c0 2.36 2.298 4.696 6.468 6.597l.997.448-1.216.787-.34-.11a15.002 15.002 0 01-5.933-4.176v6.78l-.51.084c-.894.125-1.797.182-2.7.17zm-18.004-21.789c-5.727 0-10.37 4.623-10.37 10.326s4.643 10.326 10.37 10.326h17.968a15.871 15.871 0 002.055-.146v-9.284a5.65 5.65 0 011.3-3.487 5.482 5.482 0 01-1.3-3.413v-14.72c.003-.48.072-.956.206-1.416a14.54 14.54 0 00-2.26-.17c-7.251-.042-13.65 4.712-15.671 11.645l-.159.52-.534-.096a9.303 9.303 0 00-1.605-.085z" fill="#0483DB" fill-rule="nonzero"/><path d="M349.84 243h-29.704c-5.317-.013-9.725-4.108-10.11-9.39-.383-5.283 3.386-9.967 8.647-10.743 1.322-8.664 8.876-15.018 17.674-14.864 8.798.153 16.124 6.766 17.141 15.472 4.57 1.743 7.237 6.49 6.339 11.281-.898 4.791-5.105 8.26-9.998 8.244h.012zm-13.796-33.814c-8.261.006-15.22 6.146-16.225 14.313l-.06.486h-.489c-4.719.492-8.23 4.57-8 9.29.23 4.72 4.122 8.44 8.866 8.473h29.705c4.366.009 8.096-3.133 8.813-7.422.718-4.29-1.789-8.466-5.922-9.867l-.378-.134v-.389c-.755-8.394-7.848-14.809-16.31-14.75zm197.4-63.134l-1.552-2.262a1.407 1.407 0 10-2.322 1.588l1.552 2.262a25.26 25.26 0 01-16.395 3.464l.505-2.694a1.408 1.408 0 10-2.767-.53l-.505 2.707a25.26 25.26 0 01-14.025-9.154l2.261-1.552a1.41 1.41 0 00-1.6-2.322l-2.261 1.552a25.261 25.261 0 01-3.452-16.395l2.694.505a1.407 1.407 0 10.517-2.767l-2.694-.505a25.165 25.165 0 019.154-14.026l1.54 2.262c.214.302.537.509.901.577a1.407 1.407 0 001.431-2.177l-1.55-2.262a25.26 25.26 0 0116.382-3.452l-.505 2.695a1.413 1.413 0 002.779.517l.505-2.695a25.26 25.26 0 0114.026 9.154l-2.262 1.54a1.407 1.407 0 00-.36 1.96c.205.314.532.528.901.59.364.073.742-.006 1.047-.216l2.261-1.552a25.189 25.189 0 013.465 16.383l-2.695-.505a1.413 1.413 0 00-.517 2.779l2.694.505a25.26 25.26 0 01-9.153 14.026zM523.7 95.53a30.998 30.998 0 00-31.279 47.984 30.998 30.998 0 0056.046-11.813c3.143-16.829-7.942-33.022-24.767-36.183v.012z" fill="#0266AB" fill-rule="nonzero"/><path fill="#0266AB" fill-rule="nonzero" d="M522 117.26l3.397 2.624 1.19 4.116 4.413-8z"/><path d="M517.998 117.232a8.792 8.792 0 017.255 3.817 8.805 8.805 0 01-2.28 12.195 8.792 8.792 0 01-13.597-8.866 8.792 8.792 0 018.622-7.158v.012zm0-1.232a10 10 0 108.255 4.354 9.926 9.926 0 00-8.255-4.354z" fill="#0483DB" fill-rule="nonzero"/><path d="M409.9 277a2.077 2.077 0 01-.963-.231 2.107 2.107 0 01-.817-.718 2.16 2.16 0 01-.378-1.13 11.608 11.608 0 00-1.39-5.032 2.242 2.242 0 00-1.401-1.058l-1.317.486a2.197 2.197 0 01-2.547-.826l-5.29-7.78a2.183 2.183 0 01.158-2.65c.06-.073.402-.462.963-1.07a2.208 2.208 0 00-.463-1.677 11.589 11.589 0 00-4.17-3.173 2.059 2.059 0 01-.913-.753 2.075 2.075 0 01-.366-1.033 2.21 2.21 0 01.95-1.982c4.596-3.1 10.581-3.258 14.19-.45a65.691 65.691 0 016.094-4.692c8.374-5.652 20.393-4.035 20.893-3.962a2.146 2.146 0 011.487.936c.34.507.458 1.13.329 1.726-.122.498-3.048 12.155-11.458 17.868a65.5 65.5 0 01-6.62 3.854c1.22 4.388-1.096 9.87-5.692 12.97a2.223 2.223 0 01-1.28.377zm-5.01-9.445h.183a3.462 3.462 0 012.279 1.604 12.373 12.373 0 011.609 5.677c.01.173.064.34.158.486.093.13.214.238.354.316.316.147.685.12.975-.073 4.254-2.868 6.473-8.168 5.059-12.058l-.183-.51.475-.244a61.563 61.563 0 006.96-4.011c8.033-5.421 10.837-16.678 10.97-17.152a.946.946 0 00-.145-.753.902.902 0 00-.646-.414c-.488-.073-12.044-1.628-20.04 3.769a65.066 65.066 0 00-6.314 4.947l-.402.352-.402-.364c-3.097-2.747-8.862-2.662-13.116.206a.996.996 0 00-.427.876c.02.156.073.305.159.437.1.148.24.266.402.34a12.684 12.684 0 014.693 3.647c.566.746.8 1.691.646 2.614v.194l-.147.231-1.06 1.216a.946.946 0 00-.073 1.215l5.278 7.792a.977.977 0 001.121.365l1.5-.547.134-.158z" fill="#0266AB" fill-rule="nonzero"/><path d="M424.403 247.33a30.33 30.33 0 004.912 5.67 39.146 39.146 0 004.65-10.74c.091-.44.001-.9-.25-1.274a1.657 1.657 0 00-1.084-.708 39 39 0 00-11.631.352 30.044 30.044 0 003.403 6.7" fill="#0266AB" fill-rule="nonzero"/><path d="M428.966 253l-.531-.47a29.485 29.485 0 01-4.827-5.551 29.65 29.65 0 01-3.367-6.563l-.241-.662.7-.133a37.821 37.821 0 0111.451-.337 2.126 2.126 0 011.473.927c.336.502.454 1.12.325 1.71a39.277 39.277 0 01-4.573 10.489l-.41.59zm-7.361-12.32a28.64 28.64 0 002.98 5.625 28.134 28.134 0 004.127 4.816 36.965 36.965 0 004.03-9.513.938.938 0 00-.144-.747.893.893 0 00-.64-.409 37.362 37.362 0 00-10.353.229z" fill="#0266AB" fill-rule="nonzero"/><path d="M417.683 254.483a3 3 0 11-3.366-4.966 3 3 0 013.366 4.966" fill="#0483DA" fill-rule="nonzero"/><path d="M331.255 302a1.218 1.218 0 01-1.22-.913 1.217 1.217 0 01.842-1.46h.122a1.22 1.22 0 011.531 1.537 1.218 1.218 0 01-.97.823l-.305.012zm4.68-1.437a1.219 1.219 0 01-1.158-.827 1.217 1.217 0 01.755-1.546l.403 1.217-.317-1.217a1.22 1.22 0 011.69 1.337 1.218 1.218 0 01-.837.939h-.146a1.062 1.062 0 01-.39.11v-.013zm4.667-1.789a1.217 1.217 0 01-.45-2.349h.097a1.22 1.22 0 011.756 1.27c-.069.45-.384.825-.818.97h-.121a1.22 1.22 0 01-.464.122v-.013zm4.656-1.983c-.48.006-.92-.27-1.121-.706a1.216 1.216 0 01.573-1.594l.158-.061a1.22 1.22 0 011.73 1.29 1.217 1.217 0 01-.816.961 1.306 1.306 0 01-.5.122l-.024-.012zm4.51-2.032a1.216 1.216 0 01-.5-2.324h.073a1.22 1.22 0 111.072 2.19l-.146.06a1.22 1.22 0 01-.5.086v-.012zm4.52-2.154a1.215 1.215 0 01-.536-2.312h.098a1.22 1.22 0 011.792 1.16 1.217 1.217 0 01-.707 1.018l-.122.06a1.22 1.22 0 01-.524.086v-.012zm4.474-2.227a1.216 1.216 0 01-.548-2.3l.548 1.083-.451-1.132a1.223 1.223 0 011.78 1.14 1.22 1.22 0 01-.66 1.026l-.12.06a1.22 1.22 0 01-.55.135v-.012zm4.509-2.337a1.22 1.22 0 01-1.097-.62c-.304-.577-.1-1.29.463-1.62l.122-.06a1.216 1.216 0 011.11 2.154 1.154 1.154 0 01-.598.158v-.012zm4.35-2.312a1.216 1.216 0 01-.585-2.288h.086a1.224 1.224 0 011.67.45 1.22 1.22 0 01-.451 1.667l-.134.073a1.22 1.22 0 01-.585.11v-.012zm4.364-2.434a1.216 1.216 0 01-.597-2.276h.085a1.22 1.22 0 011.935 1.022c-.014.465-.292.88-.716 1.071l-.11.073a1.22 1.22 0 01-.597.134v-.024zm4.326-2.507a1.22 1.22 0 01-1.048-.596 1.215 1.215 0 01.44-1.667l.608 1.046-.524-1.107a1.22 1.22 0 011.935 1.022c-.014.464-.292.88-.716 1.07l-.11.062a1.147 1.147 0 01-.585.194v-.024zm4.278-2.604a1.216 1.216 0 01-.646-2.251h.073a1.22 1.22 0 011.694.352 1.216 1.216 0 01-.353 1.68l-.134.085a1.22 1.22 0 01-.597.158l-.037-.024zm4.18-2.738a1.216 1.216 0 01-.695-2.227l.696 1.01-.61-1.059a1.22 1.22 0 011.612.339 1.216 1.216 0 01-.198 1.632l-.122.086a1.22 1.22 0 01-.682.243v-.024zm-51.357-86.453a1.213 1.213 0 01-.726-.23 1.204 1.204 0 01-.242-1.686l.085-.12a1.213 1.213 0 012.158.587 1.2 1.2 0 01-.247.894l-.895-.65.895.82a1.212 1.212 0 01-1.028.385zm2.419-4.276a1.117 1.117 0 01-.435-.085 1.203 1.203 0 01-.69-1.553v-.133c.25-.619.957-.918 1.579-.668.62.249.921.953.67 1.571l-1.124-.445 1.076.542a1.209 1.209 0 01-1.052.819l-.024-.048zm1.403-4.734a.911.911 0 01-.254 0 1.205 1.205 0 01-.931-1.421 1.204 1.204 0 011.403-1.024c.646.11 1.086.714.992 1.361v.157c-.11.565-.607.974-1.186.975l-.024-.048zm.556-4.902h-.072a1.212 1.212 0 01-.835-.404 1.201 1.201 0 01-.302-.873c0-.665.541-1.204 1.21-1.204.667 0 1.209.539 1.209 1.204v.157a1.207 1.207 0 01-1.185 1.168l-.025-.048zm-.133-4.927a1.208 1.208 0 01-1.21-1.072v-.156a1.21 1.21 0 011.108-1.307 1.212 1.212 0 011.312 1.102v.084a1.206 1.206 0 01-1.052 1.337l-.158.012zm-.737-4.89a1.209 1.209 0 01-1.21-.951v-.12a1.235 1.235 0 012.42-.494l-1.21.252 1.21-.132a1.205 1.205 0 01-.932 1.421.91.91 0 01-.254.072l-.024-.048zm-1.21-4.818a1.21 1.21 0 01-1.21-.843 1.263 1.263 0 01.75-1.578 1.21 1.21 0 011.512.723v.144c.197.636-.16 1.31-.798 1.506-.09.062-.187.11-.29.145l.036-.097zm-1.766-4.613a1.21 1.21 0 01-1.125-.747 1.262 1.262 0 01.617-1.614 1.212 1.212 0 011.56.554v.145a1.2 1.2 0 01-.653 1.578c-.132.088-.28.15-.435.18l.036-.096zm-2.213-4.408a1.21 1.21 0 01-1.077-.639 1.262 1.262 0 01.472-1.541 1.213 1.213 0 011.608.397l.073.145a1.2 1.2 0 01-.03 1.184 1.21 1.21 0 01-1.034.586l-.012-.132zm-2.661-4.204a1.211 1.211 0 01-.956-.494l-.073-.096a1.202 1.202 0 01.285-1.68c.544-.386 1.3-.26 1.687.283a1.2 1.2 0 01-.278 1.698 1.21 1.21 0 01-.702.385l.037-.096zm-2.976-3.902c-.36 0-.701-.159-.931-.434a1.201 1.201 0 01.108-1.747 1.213 1.213 0 011.67.097l.084.108a1.201 1.201 0 01-.157 1.698 1.212 1.212 0 01-.81.374l.036-.096zm-3.35-3.614a1.212 1.212 0 01-.835-.337l-.109-.109a1.2 1.2 0 010-1.698 1.212 1.212 0 011.718 0l.06.072a1.2 1.2 0 010 1.699 1.21 1.21 0 01-.92.445l.086-.072zm-3.63-3.336a1.21 1.21 0 01-.785-.29 1.203 1.203 0 01-.182-1.734 1.213 1.213 0 011.657-.18l.097.072a1.203 1.203 0 01.133 1.698 1.21 1.21 0 01-1.004.506l.085-.072zm-3.918-3.024c-.247 0-.487-.076-.69-.216l-.108-.085a1.2 1.2 0 01-.197-1.616 1.213 1.213 0 011.6-.335h.084c.433.3.62.846.462 1.348a1.209 1.209 0 01-1.151.844v.06zm-4.137-2.71a1.298 1.298 0 01-.629-.168l-.109-.06a1.201 1.201 0 01-.334-1.58 1.212 1.212 0 011.544-.492h.097a1.205 1.205 0 01.41 1.662 1.21 1.21 0 01-1.04.71l.061-.072zm-4.342-2.409a1.207 1.207 0 01-.532-.12h-.121a1.206 1.206 0 01-.52-1.626 1.212 1.212 0 011.62-.518l-.556 1.072.653-1.024a1.203 1.203 0 01-.544 2.277v-.06zm-4.488-2.083a1.008 1.008 0 01-.447-.097h-.145a1.206 1.206 0 01-.238-2.08 1.218 1.218 0 011.205-.136l-.483 1.108.568-1.072a1.204 1.204 0 01-.46 2.325v-.048zm-68.013-1.337a1.208 1.208 0 01-1.21-1.072 1.206 1.206 0 011.028-1.313h.133c.433-.039.853.155 1.102.508a1.206 1.206 0 01-.884 1.901l-.17-.024zm63.405-.458a1.445 1.445 0 01-.387 0h-.133a1.202 1.202 0 01-.432-2.092c.35-.284.828-.35 1.242-.173h.085a1.204 1.204 0 01-.375 2.35v-.085zm-58.591-.145a1.214 1.214 0 01-1.09-.529 1.203 1.203 0 01-.085-1.204c.19-.388.573-.645 1.005-.676l.17 1.205-.073-1.205a1.221 1.221 0 11.4 2.409h-.327zm4.838-.867a1.214 1.214 0 01-1.324-1.09 1.211 1.211 0 011.094-1.319l.23 1.205-.12-1.205a1.229 1.229 0 11.484 2.409h-.134a.752.752 0 01-.242.084l.012-.084zm48.987-.506a1.215 1.215 0 01-.35 0 1.2 1.2 0 01-.87-1.506 1.21 1.21 0 011.438-.842h.12a1.2 1.2 0 01.823 1.506 1.209 1.209 0 01-1.173.927l.012-.085zm-44.028-.542a1.209 1.209 0 01-1.21-.927c-.138-.626.24-1.25.86-1.422h.145a1.229 1.229 0 11.254 2.433l-.049-.084zm39.238-.71a1.045 1.045 0 01-.278 0 1.21 1.21 0 01-.798-.522 1.2 1.2 0 01-.17-.936 1.21 1.21 0 011.392-.915h.12a1.212 1.212 0 01.848 1.921 1.219 1.219 0 01-1.114.488v-.036zm-34.387-.326a1.209 1.209 0 01-1.21-.951 1.204 1.204 0 01.87-1.41h.122a1.23 1.23 0 11.496 2.409l-.278-.048zm29.525-.674h-.218a1.265 1.265 0 01-1.04-1.41 1.209 1.209 0 011.355-.987h.12a1.21 1.21 0 011.101 1.313 1.213 1.213 0 01-1.318 1.096v-.012zm-24.772-.229a1.212 1.212 0 01-1.306-1.108 1.21 1.21 0 011.113-1.301h.096c.433-.077.873.08 1.157.415.283.333.366.793.218 1.204a1.228 1.228 0 01-.94.79h-.337zm19.873-.518h-.266a1.206 1.206 0 01-1.052-1.337 1.208 1.208 0 011.342-1.048h.121c.668.04 1.177.612 1.137 1.277a1.21 1.21 0 01-1.282 1.132v-.024zm-14.962-.156a1.208 1.208 0 01-1.21-1.072 1.205 1.205 0 011.077-1.325h.12c.32-.034.64.06.89.261a1.203 1.203 0 01-.647 2.136h-.242.012zm10.027-.265h-.072c-.668 0-1.21-.54-1.21-1.205s.542-1.204 1.21-1.204h.133a1.206 1.206 0 011.137 1.264c.006.324-.118.636-.346.868a1.212 1.212 0 01-.864.36l.012-.083zm-4.959 0a1.207 1.207 0 01-.097-2.41h.121a1.208 1.208 0 011.246 1.169c.02.665-.505 1.22-1.173 1.24h-.097zM578.004 364c-24.39.003-46.437-14.522-56.057-36.93-9.62-22.41-4.965-48.394 11.838-66.07l.87.833c-18.505 19.478-21.741 48.906-7.911 71.938 13.83 23.033 41.328 34.012 67.221 26.84 25.894-7.172 43.822-30.733 43.827-57.597H639c-.04 33.665-27.325 60.946-60.996 60.986z" fill="#0266AB" fill-rule="nonzero"/><path d="M577.5 343c-21.815 0-39.5-17.685-39.5-39.5s17.685-39.5 39.5-39.5 39.5 17.685 39.5 39.5c-.027 21.804-17.696 39.473-39.5 39.5zm0-77.775a38.287 38.287 0 1038.287 38.275c-.027-21.132-17.155-38.255-38.287-38.275zm0 59.893c-11.933 0-21.606-9.673-21.606-21.606 0-11.933 9.673-21.606 21.606-21.606 11.933 0 21.606 9.673 21.606 21.606 0 11.933-9.673 21.606-21.606 21.606zm0-41.999a20.38 20.38 0 1014.424 5.969 20.43 20.43 0 00-14.424-5.969z" fill="#0266AB" fill-rule="nonzero"/><path d="M598.24 303c0 3.21-.769 6.374-2.24 9.228L614.069 315a38.244 38.244 0 000-24l-18.057 2.784a20.277 20.277 0 012.227 9.216" fill="#0266AB" fill-rule="nonzero"/><path d="M614.796 317h-.195l-18.566-2.884a1.218 1.218 0 01-.902-.654 1.206 1.206 0 010-1.103 19.296 19.296 0 000-17.764 1.206 1.206 0 01.004-1.102c.178-.345.512-.584.898-.643l18.566-2.836a1.219 1.219 0 011.34.812 39.93 39.93 0 010 25.314 1.217 1.217 0 01-1.145.86zm-16.788-5.005l15.935 2.424a37.638 37.638 0 000-21.812l-15.935 2.424a21.705 21.705 0 010 16.964zm-41.078-8.965a20.369 20.369 0 012.07-8.898L540.615 292a38.27 38.27 0 000 22L559 311.892a20.357 20.357 0 01-2.07-8.886" fill="#0266AB" fill-rule="nonzero"/><path d="M539.927 315.999a1.228 1.228 0 01-1.229-.869 40.645 40.645 0 010-23.252c.17-.574.73-.941 1.327-.869l18.88 2.178a1.227 1.227 0 01.957 1.75 19.516 19.516 0 000 17.133 1.22 1.22 0 010 1.126 1.23 1.23 0 01-.933.625l-18.88 2.166-.122.012zm.896-22.493a38.107 38.107 0 000 19.935l16.19-1.86a21.86 21.86 0 010-16.215l-16.19-1.86zM577 264a37.9 37.9 0 00-12 1.943L567.784 284a20.206 20.206 0 0118.444 0L589 265.943A37.9 37.9 0 00577 264z" fill="#0266AB" fill-rule="nonzero"/><path d="M568.064 285.997a1.111 1.111 0 01-.558-.134 1.218 1.218 0 01-.642-.902l-2.85-18.573a1.22 1.22 0 01.824-1.34 40.176 40.176 0 0125.324 0c.564.183.913.75.824 1.34l-2.801 18.573c-.06.386-.299.72-.645.899-.345.178-.755.18-1.102.003a19.184 19.184 0 00-8.877-2.157 19.328 19.328 0 00-8.89 2.157 1.1 1.1 0 01-.607.134zm-1.491-18.95l2.425 15.94a21.582 21.582 0 018.49-1.718 21.521 21.521 0 018.49 1.718l2.425-15.94a37.712 37.712 0 00-21.83 0zM586.228 321a20.289 20.289 0 01-9.228 2.228 20.052 20.052 0 01-9.216-2.228L565 339.057a38.03 38.03 0 0024 0L586.228 321z" fill="#0266AB" fill-rule="nonzero"/><path d="M577.5 343c-4.303 0-8.578-.696-12.662-2.059a1.219 1.219 0 01-.824-1.34l2.85-18.566c.058-.387.297-.722.642-.902a1.208 1.208 0 011.104 0 19.473 19.473 0 0017.78 0 1.208 1.208 0 011.746.89l2.85 18.578c.089.59-.26 1.156-.824 1.34A40.016 40.016 0 01577.5 343zm-10.915-4.069a37.726 37.726 0 0021.83 0l-2.425-15.923a21.837 21.837 0 01-16.98 0l-2.425 15.923zm-79.557 25.101a4.496 4.496 0 00-4.516 2.383 4.502 4.502 0 00.62 5.07 4.495 4.495 0 007.862-2.978 4.252 4.252 0 00-3.966-4.475zm0 7.8a3.384 3.384 0 01-3.538-1.618 3.39 3.39 0 01.32-3.88 3.383 3.383 0 015.985 2.173 3.102 3.102 0 01-2.767 3.325zm8.082-16.547a4.472 4.472 0 00-3.105 4.03 4.464 4.464 0 002.693 4.311 4.524 4.524 0 005.017-.968 4.442 4.442 0 00.87-4.999c-.859-2.149-3.303-3.209-5.474-2.374zm3.268 7.012a3.399 3.399 0 01-3.883.01 3.34 3.34 0 01-1.328-3.62 3.371 3.371 0 012.98-2.47 3.382 3.382 0 013.353 1.944 3.035 3.035 0 01-1.122 4.136zm-1.813 6.726c-.302-.09-.616.098-.702.421l-1.844 7.805a.625.625 0 00.062.46.55.55 0 00.354.268c.302.09.616-.098.702-.421l1.844-7.805a.625.625 0 00-.062-.46.55.55 0 00-.354-.268zm6.933-4.016a.53.53 0 00-.37.208.622.622 0 00-.126.43l.888 7.849c.047.323.324.545.622.5a.531.531 0 00.368-.215.624.624 0 00.117-.436l-.877-7.835a.6.6 0 00-.214-.392.51.51 0 00-.408-.109zm-25.03 12.164a4.484 4.484 0 00-3.428 3.763 4.467 4.467 0 002.315 4.525 4.52 4.52 0 005.077-.54 4.457 4.457 0 001.302-4.908c-.673-2.224-3.025-3.492-5.266-2.84zm2.657 7.289a3.39 3.39 0 01-3.86-.333 3.343 3.343 0 01-1-3.72 3.374 3.374 0 013.175-2.207 3.374 3.374 0 013.169 2.216 3.053 3.053 0 01-1.484 4.044zm-3.605-19.463a.425.425 0 00.335-.162.653.653 0 00.145-.408v-7.808c0-.342-.224-.619-.5-.619s-.5.277-.5.619v7.808c.002.164.06.319.159.427.098.108.23.16.361.143z" fill="#0266AB" fill-rule="nonzero"/><path d="M168.549 56.213a.902.902 0 01.306 0l9.108 2.485c.297.082.551.28.707.552.156.276.199.604.118.912l-5.185 19.713c-.142.54-.63.908-1.178.888a1.26 1.26 0 01-.306 0l-9.108-2.485a1.181 1.181 0 01-.72-.56 1.22 1.22 0 01-.117-.916l5.184-19.713a1.18 1.18 0 011.179-.888l.012.012zM168.537 55a2.364 2.364 0 00-2.274 1.777l-5.185 19.725c-.33 1.275.412 2.583 1.662 2.929l9.108 2.497c.2.048.406.072.612.072a2.364 2.364 0 002.274-1.777l5.185-19.713c.337-1.28-.406-2.595-1.662-2.94l-9.108-2.486a2.211 2.211 0 00-.612-.084zm-5.262 27.181a11.1 11.1 0 012.78.366 10.69 10.69 0 016.01 4.216v.118l.108.178c.118.188.25.377.356.578.107.201.095.19.143.272v.118c.095.189.19.378.273.579.083.2.119.283.178.413.06.13.143.402.202.602.06.201.095.284.13.437.036.154.108.414.155.614.048.201 0 .307.083.45.083.14 0 .424.083.637v1.571c0 .248 0 .496-.083.744v.366a9.823 9.823 0 01-.237 1.122l-.618 2.29-20.647-5.503.618-2.279c1.247-4.645 5.475-7.88 10.312-7.889h.154zM163.121 81c-5.376.006-10.077 3.6-11.464 8.763l-.618 2.28a1.18 1.18 0 00.844 1.44l20.658 5.504a.896.896 0 00.309 0 1.187 1.187 0 001.188-.874l.617-2.291c.107-.414.19-.827.262-1.181v-.414c0-.142.06-.555.083-.838v-1.736c0-.178 0-.473-.083-.709s-.071-.33-.095-.496c-.024-.165-.107-.46-.167-.685l-.142-.484a10.85 10.85 0 00-.238-.662c-.083-.212-.118-.318-.19-.472-.071-.153-.202-.437-.309-.65l-.213-.425-.404-.65c-.072-.094-.12-.2-.179-.294a11.784 11.784 0 00-6.664-4.654 11.634 11.634 0 00-3.089-.413l-.106-.059z" fill="#0483DA" fill-rule="nonzero"/><path d="M162.884 96.32l-1.2-.32-.623 2.385a1.25 1.25 0 00.276 1.24c.31.329.773.454 1.2.325a1.22 1.22 0 00.84-.939L164 96.64l-1.116-.32zM464.5 359c-16.544 0-29.5-4.934-29.5-11.223v-14.183c0-.328.27-.594.602-.594.333 0 .602.266.602.594 0 5.445 12.956 10.034 28.296 10.034s28.296-4.589 28.296-10.034c0-.328.27-.594.602-.594.332 0 .602.266.602.594v14.183c0 6.277-12.956 11.223-29.5 11.223zm-28.296-22.16v10.937c0 5.433 12.956 10.034 28.296 10.034s28.296-4.6 28.296-10.034V336.84c-3.612 4.66-14.726 7.977-28.296 7.977-13.57 0-24.72-3.317-28.296-7.977z" fill="#0266AB" fill-rule="nonzero"/><path d="M464.5 337c-16.544 0-29.5-4.934-29.5-11.223v-14.183c0-.328.27-.594.602-.594.333 0 .602.266.602.594 0 5.445 12.956 10.046 28.296 10.046s28.296-4.6 28.296-10.046c0-.328.27-.594.602-.594.332 0 .602.266.602.594v14.183c0 6.29-12.956 11.223-29.5 11.223zm-28.296-22.16v10.937c0 5.433 12.956 10.034 28.296 10.034s28.296-4.6 28.296-10.034V314.84c-3.612 4.672-14.726 7.989-28.296 7.989-13.57 0-24.72-3.317-28.296-7.989z" fill="#0266AB" fill-rule="nonzero"/><path d="M464.5 316c-16.544 0-29.5-4.927-29.5-11.22v-14.186c0-.328.27-.594.602-.594.333 0 .602.266.602.594 0 5.425 12.956 10.02 28.296 10.02s28.296-4.595 28.296-10.02c0-.328.27-.594.602-.594.332 0 .602.266.602.594v14.151c0 6.292-12.956 11.255-29.5 11.255zm-28.296-22.13v10.91c0 5.438 12.956 10.033 28.296 10.033s28.296-4.595 28.296-10.032v-10.91c-3.612 4.653-14.726 7.966-28.296 7.966-13.57 0-24.72-3.348-28.296-8.002v.035z" fill="#0266AB" fill-rule="nonzero"/><path d="M494 290c0 6.069-12.99 11-29 11-16.01 0-29-4.931-29-11s12.99-11 29-11c16.01 0 29 4.92 29 11" fill="#0266AB" fill-rule="nonzero"/><path d="M464.5 301c-16.544 0-29.5-5.056-29.5-11.5s12.956-11.5 29.5-11.5 29.5 5.044 29.5 11.5-12.956 11.5-29.5 11.5zm0-21.813c-15.34 0-28.296 4.747-28.296 10.313 0 5.566 12.956 10.313 28.296 10.313s28.296-4.747 28.296-10.313c0-5.566-12.956-10.313-28.296-10.313z" fill="#0266AB" fill-rule="nonzero"/><path fill="#0483DA" fill-rule="nonzero" d="M340 67l-3 1.75v3.5l3 1.75 3-1.75v-3.5z"/><path fill="#0266AB" fill-rule="nonzero" d="M435 89h-59V39h23.708v1.22h-22.504v47.56h56.592V40.22h-22.047V39H435z"/><path d="M425.806 59h-40.612c-.66 0-1.194.448-1.194 1s.535 1 1.194 1h40.612c.66 0 1.194-.448 1.194-1s-.535-1-1.194-1z" fill="#0266AB" fill-rule="nonzero"/><rect fill="#FFF" fill-rule="nonzero" x="388" y="67" width="36" height="2" rx="1"/><path d="M422.8 67h-33.6c-.663 0-1.2.448-1.2 1s.537 1 1.2 1h33.6c.663 0 1.2-.448 1.2-1s-.537-1-1.2-1z" fill="#0266AB" fill-rule="nonzero"/><rect fill="#FFF" fill-rule="nonzero" x="387" y="76" width="25" height="2" rx="1"/><path d="M410.81 76h-22.62c-.657 0-1.19.448-1.19 1s.533 1 1.19 1h22.62c.657 0 1.19-.448 1.19-1s-.533-1-1.19-1z" fill="#0266AB" fill-rule="nonzero"/><rect fill="#FFF" fill-rule="nonzero" x="415" y="76" width="11" height="2" rx="1"/><path d="M424.778 76h-8.556c-.675 0-1.222.448-1.222 1s.547 1 1.222 1h8.556c.675 0 1.222-.448 1.222-1s-.547-1-1.222-1z" fill="#0266AB" fill-rule="nonzero"/><path d="M411.273 52.99a.56.56 0 01-.267-.073l-4.57-2.255-4.56 2.255a.609.609 0 01-.665-.072.609.609 0 01-.181-.648L403.448 45l1.21.384-1.96 5.818 3.532-1.752a.621.621 0 01.544 0l3.531 1.752-1.959-5.818 1.21-.384 2.418 7.197a.632.632 0 01-.181.648.608.608 0 01-.52.144z" fill="#0483DA" fill-rule="nonzero"/><path d="M406 36.2a4.8 4.8 0 110 9.6 4.8 4.8 0 010-9.6zm0-1.2a6 6 0 100 12 6 6 0 000-12zm9.994 315L413 351.75v3.5l2.994 1.75 3.006-1.75v-3.5z" fill="#0483DA" fill-rule="nonzero"/><path fill="#0266AB" fill-rule="nonzero" d="M451.5 254.55l4.95 4.95-4.95 4.95-4.95-4.95z"/><circle fill="#0266AB" fill-rule="nonzero" cx="424" cy="378" r="5"/><circle fill="#0266AB" fill-rule="nonzero" cx="504" cy="273" r="5"/><circle fill="#0266AB" fill-rule="nonzero" cx="455" cy="95" r="5"/><circle fill="#0266AB" fill-rule="nonzero" cx="445.5" cy="370.5" r="2.5"/><path d="M406.459 468l-.278-.11c-.447-.182-1.208-.401-2.125-.681-5.81-1.753-19.433-5.866-20.375-17.209L381 417.554 423.27 414l2.682 32.446c.93 11.355-11.824 17.672-17.27 20.373-.882.439-1.57.78-1.981 1.023l-.242.158zm-24.155-49.339l2.585 31.23c.87 10.527 13.937 14.47 19.517 16.15.797.243 1.461.438 1.944.608.447-.243 1.063-.548 1.812-.925 5.217-2.58 17.464-8.653 16.594-19.168l-2.584-31.242-39.868 3.347z" fill="#0483DA" fill-rule="nonzero"/><path d="M431 424.288c-8.59-.84-20.445-1.703-28.236-1.07h-.085c-7.79.657-19.356 3.49-27.679 5.74L380.371 449c10.489-2.846 19.248-4.706 24.063-5.108 4.814-.401 13.755 0 24.57 1.034L431 424.288z" fill="#0266AB" fill-rule="nonzero"/><path d="M379.641 450L374 429.075l.576-.156c8.282-2.232 19.78-5.027 27.606-5.687 7.826-.66 19.684.216 28.218 1.044h.6l-2.1 21.597h-.6c-10.683-1.044-19.529-1.416-24.27-1.02-4.74.396-13.406 2.231-23.765 5.015l-.624.132zm-4.165-20.073l5.017 18.61c10.167-2.724 18.664-4.512 23.393-4.908 4.73-.396 13.395 0 23.885.972l1.86-19.198c-8.401-.803-19.791-1.607-27.305-.995-7.514.612-18.676 3.323-26.85 5.519z" fill="#0266AB" fill-rule="nonzero"/><path d="M418.48 147.2c.67.004 1.229.522 1.295 1.202l1.059 12.453a2.422 2.422 0 01-.977 2.174l-10.471 7.542a1.325 1.325 0 01-.635.24h-.118a1.305 1.305 0 01-1.282-1.2l-1.177-13.211a1.32 1.32 0 01.553-1.2l10.977-7.735c.188-.125.401-.203.624-.228h.106l.047-.036zm-.046-1.164h-.212a2.393 2.393 0 00-1.177.432l-10.977 7.734a2.542 2.542 0 00-1.059 2.294l1.177 13.21c.115 1.299 1.181 2.293 2.459 2.294h.223a2.44 2.44 0 001.177-.444l10.46-7.554a3.632 3.632 0 001.482-3.255l-1.07-12.441c-.105-1.306-1.176-2.31-2.46-2.306l-.023.036zm-32.892 4.164c.194.003.386.044.565.12l12.643 5.66c.445.199.746.616.786 1.092l1.228 13.421c.02.214-.018.43-.11.624a1.23 1.23 0 01-1.118.684 1.088 1.088 0 01-.516-.12l-12.275-5.662a2.4 2.4 0 01-1.4-1.967l-1.116-12.413c-.015-.23.027-.46.122-.672.22-.468.7-.768 1.228-.768h-.037zm.037-1.2c-1.01 0-1.926.577-2.345 1.475a2.35 2.35 0 00-.22 1.272l1.104 12.413a3.602 3.602 0 002.1 2.939l12.275 5.673c.326.15.682.228 1.043.228a2.482 2.482 0 001.814-.773c.467-.495.7-1.159.641-1.83l-1.227-13.433a2.546 2.546 0 00-1.498-2.075l-12.656-5.661c-.335-.15-.7-.229-1.068-.228h.037zm14.744-14.794c.169 0 .335.037.49.107l13.685 6.1a.43.43 0 01.19.167.477.477 0 01-.119.668l-11.87 8.188c-.35.244-.767.377-1.194.382a2.127 2.127 0 01-.896-.19l-13.136-5.969a.466.466 0 01-.203-.167.49.49 0 01.131-.668l12.265-8.356c.194-.141.428-.216.669-.215l-.012-.047zm.012-1.146a2.39 2.39 0 00-1.35.417l-12.264 8.356a1.67 1.67 0 00-.43 2.316c.17.252.405.454.68.584l13.137 5.969a3.34 3.34 0 001.385.298 3.464 3.464 0 001.91-.585l11.87-8.2a1.671 1.671 0 00.43-2.328 1.791 1.791 0 00-.692-.573l-13.697-6.1a2.282 2.282 0 00-.968-.214l-.011.06z" fill="#0483DB" fill-rule="nonzero"/><path d="M440.546 168.489l-1.19.109a2.351 2.351 0 01-1.742-.558 2.443 2.443 0 01-.843-1.651l-4.763-55.635c-.11-1.333.86-2.506 2.168-2.622l1.19-.11c3.27-.287 6.152 2.179 6.442 5.512L447 174c-.29-3.339-3.179-5.806-6.454-5.511" fill="#0266AB" fill-rule="nonzero"/><path d="M445.757 173a5.44 5.44 0 00-1.859-3.672 5.178 5.178 0 00-3.85-1.243l-1.171.096a2.78 2.78 0 01-2.134-.685 2.98 2.98 0 01-1.043-2.042l-4.689-55.06a3.055 3.055 0 01.677-2.197 2.908 2.908 0 011.996-1.06l1.172-.107a6.341 6.341 0 014.738 1.502 6.663 6.663 0 012.295 4.506L447 172.88l-1.243.12zm-5.24-6.14a6.281 6.281 0 014.127 1.55c.288.24.555.505.797.793l-4.794-56.057a5.428 5.428 0 00-1.856-3.676 5.166 5.166 0 00-3.853-1.239l-1.172.096c-.965.096-1.676.969-1.594 1.96l4.689 55.059c.042.469.266.902.62 1.201.354.31.815.462 1.278.42l1.173-.107h.586z" fill="#0266AB" fill-rule="nonzero"/><path d="M388.71 109h-.224l-8.822-1.085a1.887 1.887 0 01-1.649-2.109l.387-3.144a1.883 1.883 0 012.112-1.647l8.822 1.086a1.887 1.887 0 011.649 2.108l-.387 3.144A1.91 1.91 0 01388.71 109zm-8.42-6.762a.65.65 0 00-.4.137.586.586 0 00-.238.424l-.387 3.144a.636.636 0 00.125.474.687.687 0 00.424.25l8.822 1.073a.638.638 0 00.725-.562l.374-3.131a.623.623 0 00-.125-.474.687.687 0 00-.424-.25l-8.822-1.085h-.075z" fill="#0483DA" fill-rule="nonzero"/><path fill="#EFB252" fill-rule="nonzero" d="M379 106.59l3.91.37.09-.59-3.91-.37z"/><path d="M385.542 203.737a1.952 1.952 0 01-3.351-.904 1.96 1.96 0 01.66-1.924 1.952 1.952 0 012.664.156 1.96 1.96 0 01.027 2.672zM362.827 171.4l-8.445 8.108a1.294 1.294 0 000 1.837l26.95 28.275a1.313 1.313 0 001.845 0l8.445-8.096a1.319 1.319 0 000-1.848L364.66 171.4a1.29 1.29 0 00-1.87 0h.037z" fill="#0483DA" fill-rule="nonzero"/><path d="M365.158 173.023l-2.987 2.947a.624.624 0 000 .858c.233.23.599.23.831 0L366 173.88l-.82-.881m4.987 6.024l-2.991 2.947a.608.608 0 000 .858c.233.23.6.23.833 0L371 179.88l-.81-.881m-2.066-2.975l-4.944 4.888a.66.66 0 000 .906.617.617 0 00.876 0L369 176.93l-.864-.93m4.978 6.024l-4.939 4.887a.673.673 0 000 .906.629.629 0 00.887 0L374 182.93l-.863-.93m3.03 3.023l-2.991 2.943a.607.607 0 000 .858.58.58 0 00.833 0L377 185.88l-.81-.88m2.924 2.024l-4.939 4.887a.673.673 0 000 .906.629.629 0 00.887 0L380 187.93l-.863-.93m2.03 3.023l-2.991 2.943a.607.607 0 000 .858.58.58 0 00.833 0L382 190.88l-.81-.88m2.962 3l-4.915 4.857a.651.651 0 00-.224.633.631.631 0 00.449.489.606.606 0 00.623-.198l4.915-4.857-.848-.924" fill="#2C4A74" fill-rule="nonzero"/><path stroke="#0483DA" d="M378.773 107L376 128.695l1.72 1.414 1.82-.88 1.919 1.32 2.203-.832L385.21 131l2.017-.986L390 108.319z"/><path d="M379 136l.848 2.319c.182.374.506.623.871.67.361.054.723-.095.974-.402l1.307-2.01-4-.577z" fill="#0483DA" fill-rule="nonzero"/><path d="M380.782 139h-.207a1.735 1.735 0 01-1.288-.9L378 135l6 .769-1.908 2.63c-.338.382-.813.6-1.31.601zm-.931-2.57l.46 1.117c.098.14.248.232.413.252a.606.606 0 00.494-.192l.667-.913-2.034-.265z" fill="#0483DA" fill-rule="nonzero"/><path d="M431.209 214c-.395 0-.765-.194-.99-.519a1.205 1.205 0 01.29-1.676l.108-.072a1.207 1.207 0 011.388 1.978l-.097.072c-.205.143-.45.219-.7.217zm4.103-2.894c-.391.005-.76-.18-.99-.494a1.205 1.205 0 01.253-1.652h.097a1.207 1.207 0 011.364 1.905 1.207 1.207 0 01-.724.24zm4.006-2.774a1.207 1.207 0 01-.7-2.194l.097-.073a1.213 1.213 0 011.4 1.978l-.11.06c-.197.15-.439.231-.687.23zm4.055-2.845a1.207 1.207 0 01-.99-.507 1.205 1.205 0 01.29-1.676l.096-.072a1.207 1.207 0 011.969.852c.03.45-.194.88-.581 1.113l-.097.073a1.11 1.11 0 01-.687.217zm4.054-2.834a1.207 1.207 0 01-.7-2.183l.097-.072a1.207 1.207 0 011.969.852c.03.45-.194.88-.581 1.113l-.097.073c-.202.14-.442.216-.688.217zm4.043-2.834a1.207 1.207 0 01-.688-2.195h.097a1.207 1.207 0 011.387 1.966l-.096.072a1.207 1.207 0 01-.7.157zm4.115-2.894a1.207 1.207 0 01-1.002-.494 1.205 1.205 0 01.254-1.64l.108-.073a1.207 1.207 0 011.364 1.99 1.304 1.304 0 01-.724.217zm3.994-2.773a1.207 1.207 0 01-.688-2.195l.097-.072a1.21 1.21 0 011.898.882c.038.43-.157.848-.51 1.095l-.097.073c-.205.143-.45.219-.7.217zm4.055-2.834a1.207 1.207 0 01-.688-2.195l.097-.072a1.21 1.21 0 011.387 1.977l-.096.073c-.205.143-.45.219-.7.217zm79.935-1.592a1.206 1.206 0 01-1.207-1.049 1.206 1.206 0 01.978-1.338h.12a1.217 1.217 0 11.314 2.411l-.205-.024zm-4.9 0h-.192a1.207 1.207 0 11.265-2.4h.12a1.21 1.21 0 11-.192 2.412v-.012zm9.655-.555a1.209 1.209 0 11-.145-2.411h.12c.66-.078 1.258.39 1.34 1.049a1.206 1.206 0 01-1.05 1.338h-.265v.024zm-14.542-.253h-.193a1.278 1.278 0 01-1.062-1.399c.1-.638.685-1.085 1.328-1.012h.12a1.21 1.21 0 11-.193 2.411zm19.49-.362a1.208 1.208 0 11-.133-2.411h.12a1.215 1.215 0 011.254 1.688 1.215 1.215 0 01-.976.723h-.266zm-85.535-.132c-.39.005-.76-.18-.99-.495a1.205 1.205 0 01.254-1.652l.096-.06a1.207 1.207 0 011.944.873c.03.445-.189.87-.568 1.105a1.207 1.207 0 01-.736.229zm61.158-.29h-.181a1.207 1.207 0 01-1.062-1.386 1.133 1.133 0 011.315-1.013h.121a1.21 1.21 0 11-.193 2.411v-.012zm29.288-.156a1.208 1.208 0 11-.133-2.412h.12a1.215 1.215 0 11.278 2.412h-.265zm4.911-.591a1.208 1.208 0 11-.132-2.412h.12a1.215 1.215 0 011.254 1.689 1.215 1.215 0 01-.976.723h-.266zm-39.074 0h-.193a1.207 1.207 0 01.253-2.4h.12c.656.105 1.104.72 1.002 1.375a1.207 1.207 0 01-1.182.989v.036zm44.107-.567a1.206 1.206 0 01-1.207-1.061 1.206 1.206 0 011.001-1.327h.121a1.215 1.215 0 11.278 2.412l-.193-.024zm-48.995-.217h-.193a1.207 1.207 0 01.254-2.4h.12a1.21 1.21 0 11-.18 2.412v-.012zm53.797-.362a1.209 1.209 0 11-.144-2.411h.12c.66-.078 1.258.39 1.34 1.049a1.205 1.205 0 01-1.062 1.338h-.254v.024zm-58.684-.41h-.193a1.207 1.207 0 11.265-2.4h.11a1.21 1.21 0 11-.182 2.412v-.012zm-42.502-.144a1.207 1.207 0 01-.7-2.195l.109-.072a1.207 1.207 0 011.388 1.977h-.109a1.123 1.123 0 01-.688.253v.037zm106.194 0a1.206 1.206 0 01-1.206-1.05 1.206 1.206 0 011.001-1.338h.12a1.214 1.214 0 11.278 2.412l-.193-.024zm4.827-.567a1.209 1.209 0 11-.144-2.412h.12a1.215 1.215 0 11.278 2.412h-.254zm-73.394 0h-.193a1.278 1.278 0 01-1.062-1.387c.1-.638.685-1.085 1.327-1.013h.12a1.21 1.21 0 11-.192 2.412v-.012zm78.306-.567a1.206 1.206 0 01-1.207-1.061 1.206 1.206 0 011.05-1.339h.12a1.215 1.215 0 11.29 2.412h-.265l.012-.012zm-83.194-.217h-.193a1.278 1.278 0 01-1.062-1.387c.1-.638.685-1.085 1.328-1.013h.12a1.21 1.21 0 11-.193 2.412v-.012zm-4.887-.784h-.18a1.266 1.266 0 01-1.075-1.387c.1-.638.685-1.085 1.328-1.012h.12a1.21 1.21 0 11-.193 2.411v-.012zm-23.785-.639a1.207 1.207 0 01-.99-.506 1.205 1.205 0 01.29-1.677l.097-.072a1.21 1.21 0 011.897.883c.038.43-.156.847-.51 1.095h-.096a1.11 1.11 0 01-.64.169l-.048.108zm18.898-.133h-.314a1.223 1.223 0 11.398-2.411h.12a1.211 1.211 0 11-.204 2.411zm-4.827-.783h-.193a1.207 1.207 0 01-1.062-1.4c.1-.632.677-1.077 1.315-1.012h.12a1.21 1.21 0 11-.18 2.412zm-4.888-.784h-.193a1.207 1.207 0 01.254-2.4h.12a1.21 1.21 0 11-.18 2.412v-.012zm-4.887-.784h-.325a1.224 1.224 0 11.41-2.412h.108a1.21 1.21 0 11-.193 2.412z" fill="#0266AB" fill-rule="nonzero"/><circle fill="#0266AB" fill-rule="nonzero" cx="432" cy="213" r="5"/><path d="M538.181 175.202l-9.362 5.421a1.632 1.632 0 00-.819 1.423v10.89c0 .587.312 1.13.819 1.423l9.362 5.42a1.633 1.633 0 001.638 0l9.362-5.42c.503-.297.814-.837.819-1.423v-10.853a1.657 1.657 0 00-.819-1.423l-9.362-5.421a1.633 1.633 0 00-1.638-.037zm-446-152.982l-9.362 5.425A1.67 1.67 0 0082 29.07v10.862c.003.587.314 1.128.819 1.424l9.362 5.425a1.632 1.632 0 001.638 0l9.362-5.425c.505-.296.816-.837.819-1.424V29.069a1.67 1.67 0 00-.819-1.424L93.82 22.22a1.632 1.632 0 00-1.638 0zm404.425 213.634a.607.607 0 01-.606-.609c0-.336.271-.608.606-.608l46.347-5.271-1.466-12.369 20.472-2.325 8.177-14.51h.279l17.868-3.153a.613.613 0 01.576.214.62.62 0 01-.37 1.003l-17.577 3.104-8.202 14.608-19.878 2.252 1.393 12.393L496.678 236l-.072-.146z" fill="#0266AB" fill-rule="nonzero"/><path d="M504.601 228.988a.598.598 0 01-.601-.594c0-.328.27-.594.601-.594l78.721-8.796a.604.604 0 01.674.523.6.6 0 01-.53.666L504.734 229l-.133-.012zM534.38 262a.608.608 0 01-.602-.524l-2.531-19.177-21.555 2.384a.635.635 0 01-.688-.537.6.6 0 01.54-.655L532.316 241l2.679 20.333a.6.6 0 01-.529.667h-.086z" fill="#0266AB" fill-rule="nonzero"/><path d="M483.996 219.19a.583.583 0 01-.135.448.646.646 0 01-.43.224l-1.285.134a.66.66 0 01-.472-.128.597.597 0 01-.235-.41l-.436-3.637c-.035-.335.215-.636.566-.683l1.284-.134a.66.66 0 01.471.128.6.6 0 01.236.41l.436 3.648m5.001-.001c.034.332-.217.63-.566.671l-1.285.135a.649.649 0 01-.474-.125.585.585 0 01-.233-.413l-.436-3.636c-.035-.335.215-.636.566-.683l1.285-.134a.66.66 0 01.471.128.6.6 0 01.236.41l.436 3.647m5-1c.034.332-.217.63-.566.671l-1.285.135a.649.649 0 01-.474-.125.585.585 0 01-.233-.413l-.436-3.637c-.035-.335.215-.636.566-.683l1.285-.134c.35-.033.664.206.707.537l.436 3.649m6-.011c.035.334-.215.636-.566.682l-1.285.135a.649.649 0 01-.475-.125.585.585 0 01-.232-.413l-.436-3.637c-.035-.335.215-.636.566-.683l1.285-.134c.35-.033.664.206.707.537l.436 3.638m-21.001 2.012a.583.583 0 01-.135.448.646.646 0 01-.43.224l-1.285.134a.66.66 0 01-.472-.128.597.597 0 01-.235-.41l-.436-3.638c-.034-.332.217-.63.566-.671l1.284-.146c.35-.033.664.206.707.537l.436 3.65m31.002 8.735c.026.368-.223.692-.561.73l-3.66.34a.564.564 0 01-.45-.144.664.664 0 01-.213-.451l-.112-1.326c-.026-.366.224-.686.561-.718l3.66-.353a.576.576 0 01.45.153.677.677 0 01.213.455l.112 1.314m-.001 4.928c.033.35-.205.664-.536.707l-3.643.436a.582.582 0 01-.447-.135.646.646 0 01-.223-.43l-.145-1.285c-.033-.354.212-.67.547-.707l3.631-.436c.332-.034.63.217.67.566l.146 1.284m1 5c.033.35-.206.664-.537.707l-3.65.436a.583.583 0 01-.448-.135.646.646 0 01-.224-.43l-.134-1.285a.66.66 0 01.128-.472.597.597 0 01.41-.235l3.638-.436c.332-.034.63.217.671.566l.146 1.284m.999 6a.66.66 0 01-.128.471.597.597 0 01-.41.236l-3.648.436a.583.583 0 01-.448-.135.646.646 0 01-.224-.43l-.134-1.285a.66.66 0 01.128-.472.597.597 0 01.41-.235l3.637-.436c.335-.035.636.215.683.566l.134 1.284m-2.999-21.001c.033.354-.212.67-.547.707l-3.631.435a.57.57 0 01-.45-.13.635.635 0 01-.22-.435l-.146-1.272c-.033-.352.204-.67.536-.718l3.643-.436c.335-.034.635.223.67.577l.145 1.272" fill="#0483DA" fill-rule="nonzero"/><path d="M477.575 255a3.319 3.319 0 01-2.038-.72 3.27 3.27 0 01-1.22-2.195l-3.294-29.106a3.294 3.294 0 012.88-3.66l29.12-3.294a3.233 3.233 0 012.44.696 3.281 3.281 0 011.22 2.196l3.294 29.105a3.293 3.293 0 01-2.891 3.66l-29.109 3.294-.402.024zm25.619-37.73l-29.108 3.293a2.074 2.074 0 00-1.818 2.281l3.294 29.106a2 2 0 00.768 1.379c.422.34.962.498 1.5.439l29.122-3.294a2.062 2.062 0 001.805-2.28l-3.294-29.107a2.05 2.05 0 00-2.269-1.817zm.695 30.85a1.976 1.976 0 01-1.927-1.72 1.952 1.952 0 01.427-1.427 1.879 1.879 0 011.293-.72 1.964 1.964 0 011.427.415c.403.318.662.783.72 1.293a1.952 1.952 0 01-1.72 2.147l-.22.012zm0-2.66h-.085a.756.756 0 00-.476.27.708.708 0 00.11 1.012.732.732 0 00.525.158.756.756 0 00.488-.268.78.78 0 00.158-.537.756.756 0 00-.268-.476.708.708 0 00-.464-.158h.012zm-26.766-18.663a1.94 1.94 0 111.22-3.465c.4.326.658.794.72 1.306a1.89 1.89 0 01-.415 1.427 1.928 1.928 0 01-1.293.72l-.232.012zm0-2.66h-.085a.708.708 0 00-.635.806.72.72 0 00.793.634.732.732 0 00.635-.805.732.732 0 00-.72-.634h.012z" fill="#0266AB" fill-rule="nonzero"/><path d="M487.997 256.179c.034.339-.222.642-.577.683l-1.273.134a.66.66 0 01-.471-.128.597.597 0 01-.236-.41l-.436-3.648a.583.583 0 01.135-.448.646.646 0 01.43-.223l1.273-.135c.355-.04.676.201.719.537l.436 3.638m4.999-1c.041.337-.212.642-.568.683l-1.276.134a.664.664 0 01-.473-.128.597.597 0 01-.236-.41l-.437-3.648a.57.57 0 01.131-.451.637.637 0 01.436-.22l1.276-.135c.356-.04.678.201.721.537l.426 3.638m6 .001c.041.336-.212.642-.568.683l-1.276.134c-.354.033-.672-.204-.72-.537l-.426-3.65a.571.571 0 01.131-.45.637.637 0 01.436-.221l1.276-.135c.356-.04.678.201.721.538l.426 3.638m4.998-.999a.57.57 0 01-.131.45.637.637 0 01-.436.22l-1.275.146c-.354.033-.672-.204-.721-.536l-.425-3.642a.57.57 0 01.131-.45.637.637 0 01.436-.22l1.275-.146c.358-.033.678.21.721.547l.425 3.631m-20.997 2.998c.034.339-.222.642-.577.683l-1.273.134a.66.66 0 01-.471-.128.597.597 0 01-.236-.41l-.436-3.648a.583.583 0 01.135-.448.646.646 0 01.43-.223l1.273-.135c.355-.04.676.201.719.537l.436 3.638m-10-24.325c.033.35-.206.664-.537.707l-3.649.436c-.332.034-.63-.217-.671-.566l-.135-1.285a.649.649 0 01.125-.474.585.585 0 01.413-.233l3.637-.436c.335-.035.636.215.683.566l.134 1.285m1 4.988c.033.352-.204.67-.537.719l-3.639.436c-.335.035-.636-.215-.683-.566l-.134-1.285a.66.66 0 01.128-.471.597.597 0 01.41-.236l3.638-.436c.335-.035.636.215.683.566l.134 1.273m-.001 6c.04.355-.201.676-.537.719l-3.638.436c-.339.034-.642-.222-.683-.577l-.134-1.273a.66.66 0 01.128-.471.597.597 0 01.41-.236l3.648-.436c.16-.02.322.03.448.135a.646.646 0 01.223.43l.135 1.273m1 5c.04.355-.201.676-.537.719l-3.638.436c-.339.034-.642-.222-.683-.577l-.134-1.273a.66.66 0 01.128-.471.597.597 0 01.41-.236l3.648-.436c.16-.02.322.03.448.135a.646.646 0 01.223.43l.135 1.273m-1.999-20.988c.033.35-.206.664-.537.707l-3.649.436c-.332.034-.63-.217-.671-.566l-.135-1.285a.649.649 0 01.125-.474.585.585 0 01.413-.233l3.637-.436c.335-.035.636.215.683.566l.134 1.285" fill="#0483DA" fill-rule="nonzero"/><g fill="#0483DA" fill-rule="nonzero"><path d="M464.653 396.487a4.434 4.434 0 00-4.464 2.35 4.457 4.457 0 00.61 5.017 4.43 4.43 0 004.895 1.207 4.448 4.448 0 002.861-4.162 4.189 4.189 0 00-3.902-4.412zm0 7.702a3.328 3.328 0 01-3.482-1.595 3.346 3.346 0 01.314-3.825 3.326 3.326 0 013.696-1.002 3.339 3.339 0 012.195 3.144 3.057 3.057 0 01-2.723 3.278z"/><path d="M464.653 405.92a5.03 5.03 0 01-5.008-2.73 5.056 5.056 0 01.745-5.665 5.024 5.024 0 015.543-1.334 5.045 5.045 0 013.23 4.708 4.797 4.797 0 01-4.51 5.021zm0-7.69a2.732 2.732 0 00-2.93 1.202 2.748 2.748 0 00.165 3.17 2.731 2.731 0 003.038.89 2.742 2.742 0 001.842-2.581 2.436 2.436 0 00-2.115-2.681zm9.555-1.743a.583.583 0 00-.595.573v7.69a.609.609 0 101.215 0v-7.69a.573.573 0 00-.62-.573z"/><path d="M474.208 405.92a1.217 1.217 0 01-1.215-1.219v-7.69c0-.673.544-1.219 1.215-1.219.672 0 1.216.546 1.216 1.219v7.69c0 .673-.544 1.219-1.216 1.219zm9.556-9.433a4.434 4.434 0 00-4.465 2.35 4.457 4.457 0 00.61 5.017 4.43 4.43 0 004.896 1.207 4.448 4.448 0 002.86-4.162 4.189 4.189 0 00-3.901-4.412zm0 7.702a3.328 3.328 0 01-3.482-1.595 3.346 3.346 0 01.314-3.825 3.326 3.326 0 013.695-1.002 3.339 3.339 0 012.196 3.144 3.045 3.045 0 01-2.723 3.278z"/><path d="M483.764 405.92a5.03 5.03 0 01-5.008-2.73 5.056 5.056 0 01.745-5.665 5.024 5.024 0 015.542-1.334 5.045 5.045 0 013.23 4.708 4.785 4.785 0 01-4.51 5.021zm0-7.69a2.732 2.732 0 00-2.93 1.202 2.748 2.748 0 00.164 3.17 2.731 2.731 0 003.039.89 2.742 2.742 0 001.842-2.581 2.436 2.436 0 00-2.115-2.681zm9.555 7.08a.584.584 0 00.596-.56v-7.69a.609.609 0 10-1.216 0v7.69a.573.573 0 00.62.56z"/><path d="M493.319 405.92a1.217 1.217 0 01-1.216-1.219v-7.69c0-.673.544-1.219 1.216-1.219.671 0 1.216.546 1.216 1.219v7.69c0 .673-.545 1.219-1.216 1.219zm6.248-9.433a.583.583 0 00-.595.573v7.69a.609.609 0 101.215 0v-7.69a.586.586 0 00-.62-.573z"/><path d="M499.567 405.92a1.217 1.217 0 01-1.215-1.219v-7.69c0-.673.544-1.219 1.215-1.219.672 0 1.216.546 1.216 1.219v7.69c0 .673-.544 1.219-1.216 1.219zm6.237-9.433a.57.57 0 00-.584.573v7.69a.573.573 0 00.584.56.584.584 0 00.596-.56v-7.69a.586.586 0 00-.596-.573z"/><path d="M505.804 405.92a1.217 1.217 0 01-1.216-1.219v-7.69c0-.673.545-1.219 1.216-1.219.671 0 1.216.546 1.216 1.219v7.69c0 .673-.545 1.219-1.216 1.219zm9.556-.61a4.422 4.422 0 004.445-2.351 4.445 4.445 0 00-.616-5.001 4.418 4.418 0 00-4.883-1.198 4.436 4.436 0 00-2.85 4.15 4.177 4.177 0 003.903 4.4zm0-7.69a3.328 3.328 0 013.481 1.596 3.346 3.346 0 01-.314 3.824 3.326 3.326 0 01-3.696 1.003 3.339 3.339 0 01-2.195-3.144 3.057 3.057 0 012.723-3.279z"/><path d="M515.36 405.92a4.226 4.226 0 01-3.21-1.5 5.26 5.26 0 01-1.301-3.51 4.538 4.538 0 014.82-4.071 4.542 4.542 0 014.223 4.69 4.54 4.54 0 01-4.533 4.391zm0-7.69c-.5.01-.973.22-1.314.585a2.942 2.942 0 00-.802 2.084 2.176 2.176 0 004.29-.655 2.178 2.178 0 00-2.175-2.014zm0 11.92a4.422 4.422 0 00-4.437 2.358 4.445 4.445 0 00.62 4.996 4.418 4.418 0 004.876 1.199 4.436 4.436 0 002.855-4.142 4.177 4.177 0 00-3.915-4.412zm0 7.69a3.328 3.328 0 01-3.475-1.607 3.346 3.346 0 01.324-3.822 3.326 3.326 0 013.695-.995 3.339 3.339 0 012.19 3.145 3.045 3.045 0 01-2.735 3.278z"/><path d="M515.36 419.57a5.03 5.03 0 01-5.002-2.742 5.056 5.056 0 01.76-5.663 5.024 5.024 0 015.545-1.32 5.045 5.045 0 013.219 4.716 4.785 4.785 0 01-4.523 5.009zm0-7.69a2.732 2.732 0 00-2.924 1.213 2.748 2.748 0 00.175 3.167 2.731 2.731 0 003.039.883 2.742 2.742 0 001.837-2.582 2.436 2.436 0 00-2.128-2.681zm-9.556-1.73a.558.558 0 00-.584.56v7.69a.561.561 0 00.584.56.57.57 0 00.596-.56v-7.69a.573.573 0 00-.596-.56z"/><path d="M505.804 419.57a1.217 1.217 0 01-1.216-1.219v-7.69c0-.673.545-1.219 1.216-1.219.671 0 1.216.546 1.216 1.219v7.69c0 .673-.545 1.219-1.216 1.219zm-9.555-9.42a4.422 4.422 0 00-4.444 2.348 4.445 4.445 0 00.61 5 4.418 4.418 0 004.878 1.205 4.436 4.436 0 002.858-4.142 4.177 4.177 0 00-3.902-4.412zm0 7.69a3.328 3.328 0 01-3.482-1.596 3.346 3.346 0 01.314-3.825 3.326 3.326 0 013.695-1.002 3.339 3.339 0 012.196 3.144 3.045 3.045 0 01-2.723 3.278z"/><path d="M496.249 419.57a5.03 5.03 0 01-5.01-2.732 5.056 5.056 0 01.75-5.667 5.024 5.024 0 015.548-1.327 5.045 5.045 0 013.222 4.717 4.773 4.773 0 01-4.51 5.009zm0-7.69a2.732 2.732 0 00-2.93 1.202 2.748 2.748 0 00.164 3.17 2.731 2.731 0 003.039.89 2.742 2.742 0 001.842-2.581 2.436 2.436 0 00-2.115-2.681zm-8.972 6.52v-7.69a.609.609 0 10-1.216 0v7.69a.609.609 0 101.216 0z"/><path d="M486.693 419.57a1.217 1.217 0 01-1.215-1.219v-7.69c0-.673.544-1.219 1.215-1.219.672 0 1.216.546 1.216 1.219v7.69c0 .673-.544 1.219-1.216 1.219zm-6.248-.61a.57.57 0 00.595-.56v-7.69a.609.609 0 10-1.215 0v7.69a.561.561 0 00.62.56z"/><path d="M480.445 419.57a1.217 1.217 0 01-1.216-1.219v-7.69c0-.673.544-1.219 1.216-1.219.671 0 1.215.546 1.215 1.219v7.69c0 .673-.544 1.219-1.215 1.219zm-6.237-9.42a.57.57 0 00-.595.56v7.69a.609.609 0 101.215 0v-7.69a.561.561 0 00-.62-.56z"/><path d="M474.208 419.57a1.217 1.217 0 01-1.215-1.219v-7.69c0-.673.544-1.219 1.215-1.219.672 0 1.216.546 1.216 1.219v7.69c0 .673-.544 1.219-1.216 1.219zm-9.555-9.42a4.422 4.422 0 00-4.444 2.348 4.445 4.445 0 00.61 5 4.418 4.418 0 004.878 1.205 4.436 4.436 0 002.858-4.142 4.189 4.189 0 00-3.902-4.412zm0 7.69a3.328 3.328 0 01-3.482-1.596 3.346 3.346 0 01.314-3.825 3.326 3.326 0 013.696-1.002 3.339 3.339 0 012.195 3.144 3.057 3.057 0 01-2.723 3.278z"/><path d="M464.653 419.57a5.03 5.03 0 01-5.01-2.732 5.056 5.056 0 01.751-5.667 5.024 5.024 0 015.547-1.327 5.045 5.045 0 013.222 4.717 4.785 4.785 0 01-4.51 5.009zm0-7.69a2.732 2.732 0 00-2.93 1.202 2.748 2.748 0 00.165 3.17 2.731 2.731 0 003.038.89 2.742 2.742 0 001.842-2.581 2.436 2.436 0 00-2.115-2.681zm0 11.92a4.434 4.434 0 00-4.464 2.349 4.457 4.457 0 00.61 5.017 4.43 4.43 0 004.895 1.207 4.448 4.448 0 002.861-4.162 4.189 4.189 0 00-3.902-4.412zm0 7.702a3.328 3.328 0 01-3.48-1.593 3.346 3.346 0 01.309-3.823 3.326 3.326 0 013.69-1.01 3.339 3.339 0 012.204 3.135 3.057 3.057 0 01-2.723 3.29z"/><path d="M464.653 433.232a5.03 5.03 0 01-5.008-2.73 5.056 5.056 0 01.745-5.664 5.024 5.024 0 015.543-1.335 5.045 5.045 0 013.23 4.708 4.797 4.797 0 01-4.51 5.021zm0-7.69a2.732 2.732 0 00-2.932 1.205 2.748 2.748 0 00.17 3.172 2.731 2.731 0 003.044.883 2.742 2.742 0 001.833-2.591 2.436 2.436 0 00-2.115-2.67zm9.555-1.742a.584.584 0 00-.595.56v7.702a.609.609 0 101.215 0v-7.702a.573.573 0 00-.62-.56z"/><path d="M474.208 433.232a1.217 1.217 0 01-1.215-1.219v-7.702c0-.673.544-1.219 1.215-1.219.672 0 1.216.546 1.216 1.219v7.702c0 .674-.544 1.22-1.216 1.22zm9.556-9.432a4.434 4.434 0 00-4.465 2.349 4.457 4.457 0 00.61 5.017 4.43 4.43 0 004.896 1.207 4.448 4.448 0 002.86-4.162 4.189 4.189 0 00-3.901-4.412zm0 7.702a3.328 3.328 0 01-3.48-1.593 3.346 3.346 0 01.308-3.823 3.326 3.326 0 013.69-1.01 3.34 3.34 0 012.205 3.135 3.045 3.045 0 01-2.723 3.29z"/><path d="M483.764 433.232a5.03 5.03 0 01-5.008-2.73 5.056 5.056 0 01.745-5.664 5.024 5.024 0 015.542-1.335 5.045 5.045 0 013.23 4.708 4.785 4.785 0 01-4.51 5.021zm0-7.69a2.732 2.732 0 00-2.932 1.205 2.748 2.748 0 00.17 3.172 2.731 2.731 0 003.043.883 2.742 2.742 0 001.834-2.591 2.436 2.436 0 00-2.115-2.67zm9.555-1.742a.584.584 0 00-.584.56v7.702a.609.609 0 101.216 0v-7.702a.586.586 0 00-.632-.56z"/><path d="M493.319 433.232a1.217 1.217 0 01-1.216-1.219v-7.702c0-.673.544-1.219 1.216-1.219.671 0 1.216.546 1.216 1.219v7.702c0 .674-.545 1.22-1.216 1.22zm6.248-9.432a.584.584 0 00-.595.56v7.702a.609.609 0 101.215 0v-7.702a.586.586 0 00-.62-.56z"/><path d="M499.567 433.232a1.217 1.217 0 01-1.215-1.219v-7.702c0-.673.544-1.219 1.215-1.219.672 0 1.216.546 1.216 1.219v7.702c0 .674-.544 1.22-1.216 1.22zm6.237-9.432a.57.57 0 00-.584.56v7.702a.573.573 0 00.584.56.584.584 0 00.596-.56v-7.702a.584.584 0 00-.596-.56z"/><path d="M505.804 433.232a1.217 1.217 0 01-1.216-1.219v-7.702c0-.673.545-1.219 1.216-1.219.671 0 1.216.546 1.216 1.219v7.702c0 .674-.545 1.22-1.216 1.22zm9.556-9.432a4.422 4.422 0 00-4.437 2.358 4.445 4.445 0 00.62 4.996 4.418 4.418 0 004.876 1.199 4.436 4.436 0 002.855-4.142 4.189 4.189 0 00-3.915-4.412zm0 7.702a3.328 3.328 0 01-3.474-1.604 3.346 3.346 0 01.319-3.82 3.326 3.326 0 013.69-1.003 3.339 3.339 0 012.2 3.136 3.057 3.057 0 01-2.736 3.29z"/><path d="M515.36 433.232a5.03 5.03 0 01-5-2.739 5.056 5.056 0 01.753-5.662 5.024 5.024 0 015.542-1.328 5.045 5.045 0 013.227 4.708 4.797 4.797 0 01-4.523 5.021zm0-7.69a2.732 2.732 0 00-2.926 1.216 2.748 2.748 0 00.18 3.17 2.731 2.731 0 003.044.875 2.742 2.742 0 001.829-2.592 2.436 2.436 0 00-2.128-2.67z"/></g><path d="M524.65 382h-70.289a4.38 4.38 0 00-4.361 4.363v50.262a4.393 4.393 0 004.361 4.375h70.29a4.38 4.38 0 004.349-4.375v-50.262a4.368 4.368 0 00-4.35-4.363zm-55.59 3.278a1.64 1.64 0 011.526 1.01 1.65 1.65 0 01-.354 1.8 1.636 1.636 0 01-1.793.353 1.645 1.645 0 01-1.006-1.53 1.63 1.63 0 011.627-1.633zm-6.535 0a1.64 1.64 0 011.525 1.01 1.65 1.65 0 01-.353 1.8 1.636 1.636 0 01-1.793.353 1.645 1.645 0 01-1.007-1.53 1.643 1.643 0 011.628-1.633zm-6.536 0a1.64 1.64 0 011.525 1.01 1.65 1.65 0 01-.353 1.8 1.636 1.636 0 01-1.793.353 1.645 1.645 0 01-1.007-1.53 1.635 1.635 0 011.628-1.633zm69.743 50.25a2.19 2.19 0 01-2.174 2.194h-68.116a2.19 2.19 0 01-2.174-2.194v-41.511c0-1.205.973-2.182 2.174-2.182h68.116c1.2 0 2.174.977 2.174 2.182v41.51zm-1.628-47.008h-46.333a1.643 1.643 0 01-1.5-1.639c0-.854.652-1.566 1.5-1.64h46.333a1.643 1.643 0 011.5 1.64c0 .854-.652 1.566-1.5 1.64zm-46.326-205.522a1.208 1.208 0 01-1.202-.992v-.122c-.08-.438.076-.885.408-1.173.333-.29.791-.375 1.203-.227.412.149.714.51.794.947v.122a1.223 1.223 0 01-.962 1.42.65.65 0 01-.24.025zm-.926-4.896a1.208 1.208 0 01-1.202-1.004v-.122c-.08-.438.076-.885.409-1.174.332-.288.79-.375 1.202-.226.412.148.714.51.794.947v.122c.06.32-.008.65-.189.92a1.2 1.2 0 01-.773.512l-.24.025zm-.938-4.896a1.208 1.208 0 01-1.202-1.004v-.11a1.243 1.243 0 01.98-1.45 1.225 1.225 0 011.425.997v.11c.06.32-.008.65-.189.92a1.2 1.2 0 01-.773.512l-.24.025zm-.961-4.982a1.208 1.208 0 01-1.143-.942v-.123c-.06-.32.008-.65.189-.92a1.2 1.2 0 01.773-.512c.314-.06.64.008.903.192.264.184.446.467.504.787a1.298 1.298 0 01-.95 1.494l-.276.024zm-.926-4.896a1.208 1.208 0 01-1.143-.942v-.123a1.243 1.243 0 01.98-1.45 1.225 1.225 0 011.425.997c.079.326.023.67-.154.951-.178.283-.46.479-.784.543l-.324.024zm-.926-4.896a1.206 1.206 0 01-1.203-.942v-.11c-.08-.438.077-.885.409-1.174.332-.288.79-.375 1.202-.226.412.148.715.51.794.947.075.325.015.667-.164.947-.18.28-.463.472-.786.534a.846.846 0 01-.252-.11v.134zm-.938-4.896a1.208 1.208 0 01-1.143-.942v-.123a1.26 1.26 0 01.409-1.173c.332-.289.79-.375 1.202-.226.412.148.715.51.794.946a1.298 1.298 0 01-.95 1.494l-.312.024z" fill="#0266AB" fill-rule="nonzero"/><path fill="#0483DA" fill-rule="nonzero" d="M479.5 174.55l4.95 4.95-4.95 4.95-4.95-4.95zm-241-118l4.95 4.95-4.95 4.95-4.95-4.95z"/><circle fill="#0266AB" fill-rule="nonzero" cx="470.5" cy="148.5" r="3.5"/><path d="M597 170h-14v-35.357c0-.907.73-1.643 1.632-1.643h10.724c.901 0 1.632.736 1.632 1.643L597 170zm-12.809-1.2h11.618v-34.157a.442.442 0 00-.441-.444h-10.724a.427.427 0 00-.44.444l-.013 34.158z" fill="#0483DA" fill-rule="nonzero"/><path d="M584 171h-14v-29.314c0-.927.729-1.68 1.632-1.686H584v31zm-12.809-1.221h11.618V141.27h-11.177a.459.459 0 00-.44.464v28.045zM610 171h-14v-31h12.356c.908 0 1.644.756 1.644 1.688V171zm-12.809-1.223h11.618v-28.138a.459.459 0 00-.453-.465H597.19v28.603z" fill="#0483DA" fill-rule="nonzero"/><path d="M591.111 115.04l2.345 4.697a.148.148 0 00.135.085l5.257.753a.172.172 0 01.143.115.168.168 0 01-.044.176l-3.813 3.642a.156.156 0 000 .145l.9 5.147a.169.169 0 01-.066.166.175.175 0 01-.18.016l-4.702-2.427a.188.188 0 00-.16 0l-4.702 2.427a.175.175 0 01-.18-.016.169.169 0 01-.066-.166l.888-5.147a.144.144 0 000-.145l-3.813-3.642a.168.168 0 01-.044-.176.172.172 0 01.143-.115l5.257-.753a.148.148 0 00.123-.085l2.357-4.697a.175.175 0 01.222 0zm-14.013 10.995l1.122 2.38c.022.05.07.085.122.09l2.514.383a.16.16 0 01.137.118.171.171 0 01-.051.177l-1.819 1.855a.147.147 0 000 .14l.428 2.636a.17.17 0 01-.068.157.152.152 0 01-.164.01l-2.246-1.28a.175.175 0 00-.158 0l-2.246 1.28a.152.152 0 01-.164-.01.17.17 0 01-.068-.157l.44-2.635a.2.2 0 000-.141l-1.819-1.855a.171.171 0 01-.051-.177.16.16 0 01.137-.118l2.514-.383a.147.147 0 00.122-.09l1.122-2.38a.153.153 0 01.196 0zm26.999 0l1.127 2.395a.147.147 0 00.122.09l2.524.387a.175.175 0 01.123.122.187.187 0 01-.038.174l-1.825 1.867a.175.175 0 000 .154l.43 2.575a.172.172 0 01-.062.168.153.153 0 01-.172.012l-2.253-1.287a.152.152 0 00-.147 0l-2.254 1.287a.153.153 0 01-.172-.012.172.172 0 01-.061-.168l.429-2.575a.175.175 0 000-.154l-1.825-1.867a.187.187 0 01-.033-.178.174.174 0 01.13-.118l2.512-.387a.135.135 0 00.122-.09l1.127-2.395a.153.153 0 01.196 0z" fill="#0266AB" fill-rule="nonzero"/><path fill="#0483DA" fill-rule="nonzero" d="M271.994 88L269 89.75v3.5l2.994 1.75L275 93.25v-3.5z"/><path d="M250.981 89a.917.917 0 01-.512-.152 1.022 1.022 0 01-.332-1.371 1.005 1.005 0 011.746.067c.169.322.154.71-.038 1.02a1.081 1.081 0 01-.864.436zm3.233-4a1.21 1.21 0 01-1.051-1.813l.062-.098c.22-.405.652-.655 1.12-.65.47.006.895.268 1.104.678.21.41.167.9-.11 1.27a1.356 1.356 0 01-1.125.613zm2.715-4.226a1.196 1.196 0 01-.638-.172 1.21 1.21 0 01-.426-1.629l.076-.11a1.268 1.268 0 011.714-.38 1.207 1.207 0 01.401 1.691 1.36 1.36 0 01-1.127.563v.037zm2.703-4.214a1.272 1.272 0 01-.625-.171 1.21 1.21 0 01-.426-1.641l.063-.098c.22-.405.652-.656 1.12-.65.469.006.895.267 1.104.678.21.41.167.9-.11 1.27a1.36 1.36 0 01-1.076.576l-.05.036zm2.362-4.56a1.013 1.013 0 01-.863-.503.977.977 0 01.004-.986v-.05a1.026 1.026 0 011.394-.308.994.994 0 01.446.622.978.978 0 01-.132.749c-.18.291-.501.471-.849.476zm36.648-2.09a1.346 1.346 0 01-.311 0h-.12a1.183 1.183 0 01-.883-.821 1.14 1.14 0 01.318-1.145 1.224 1.224 0 011.188-.28h.108c.662.08 1.131.667 1.049 1.31-.083.641-.687 1.097-1.349 1.017v-.082zm-4.793-1.222h-.42a1.158 1.158 0 01-.782-1.401c.162-.595.772-.964 1.393-.844h.12c.662.084 1.129.672 1.043 1.315-.086.642-.693 1.095-1.354 1.012v-.082zm-4.794-1.163h-.312a1.198 1.198 0 01-.77-.526 1.134 1.134 0 01-.14-.905c.159-.606.784-.98 1.414-.849h.107c.662.08 1.132.666 1.049 1.309-.083.642-.686 1.098-1.348 1.018v-.047zm-4.794-1.221a1.42 1.42 0 01-.312 0 1.198 1.198 0 01-.77-.527 1.134 1.134 0 01-.14-.904c.159-.6.776-.974 1.402-.849h.12c.662.08 1.131.666 1.048 1.309-.082.642-.686 1.098-1.348 1.017v-.046z" fill="#0266AB" fill-rule="nonzero"/><circle fill="#0266AB" fill-rule="nonzero" cx="271.5" cy="61.5" r="9.5"/><path d="M245.5 90.188a8.312 8.312 0 110 16.624 8.312 8.312 0 010-16.624zm0-1.188a9.5 9.5 0 100 19 9.5 9.5 0 000-19zM308 67.25a3.75 3.75 0 110 7.5 3.75 3.75 0 010-7.5zm0-1.25a5 5 0 100 10 5 5 0 000-10zm32.5-37.812a8.312 8.312 0 110 16.624 8.312 8.312 0 010-16.624zm0-1.188a9.5 9.5 0 100 19 9.5 9.5 0 000-19z" fill="#0483DA" fill-rule="nonzero"/><path d="M165.967 73.255a1 1 0 11-1.934-.51 1 1 0 011.934.51m.998-2.992a1 1 0 11-1.93-.526 1 1 0 011.93.526" fill="#0266AB" fill-rule="nonzero"/><path d="M167.956 66.293a1 1 0 11-1.912-.586 1 1 0 011.912.586" fill="#0483DA" fill-rule="nonzero"/><g transform="translate(0 55)" fill-rule="nonzero"><path d="M55.18 22.992H1.82a1.81 1.81 0 01-1.82-1.8v-19.2c0-.994.814-1.8 1.82-1.8h53.36a1.81 1.81 0 011.82 1.8v19.2a1.822 1.822 0 01-1.82 1.8zM1.82 1.392a.603.603 0 00-.607.6v19.2c0 .331.271.6.606.6h53.362a.615.615 0 00.606-.6v-19.2c0-.331-.271-.6-.606-.6H1.819z" fill="#0483DA"/><ellipse fill="#0483DA" cx="45.479" cy="11.592" rx="2.426" ry="2.4"/><path d="M13.947 12.792H9.096c-.67 0-1.213-.537-1.213-1.2 0-.663.543-1.2 1.213-1.2h4.85c.67 0 1.214.537 1.214 1.2 0 .663-.543 1.2-1.213 1.2z" fill="#0483DA"/><path d="M26.074 12.792h-4.85c-.67 0-1.213-.537-1.213-1.2 0-.663.543-1.2 1.212-1.2h4.851c.67 0 1.213.537 1.213 1.2 0 .663-.543 1.2-1.213 1.2z" fill="#0266AB"/></g><g transform="translate(0 79)" fill-rule="nonzero"><path d="M55.18 22.992H1.82a1.81 1.81 0 01-1.82-1.8v-19.2c0-.994.814-1.8 1.82-1.8h53.36a1.81 1.81 0 011.82 1.8v19.2a1.822 1.822 0 01-1.82 1.8zM1.82 1.392a.603.603 0 00-.607.6v19.2c0 .331.271.6.606.6h53.362a.615.615 0 00.606-.6v-19.2c0-.331-.271-.6-.606-.6H1.819z" fill="#0483DA"/><ellipse fill="#0483DA" cx="45.479" cy="11.592" rx="2.426" ry="2.4"/><path d="M13.947 12.792H9.096c-.67 0-1.213-.537-1.213-1.2 0-.663.543-1.2 1.213-1.2h4.85c.67 0 1.214.537 1.214 1.2 0 .663-.543 1.2-1.213 1.2z" fill="#0483DA"/><path d="M26.074 12.792h-4.85c-.67 0-1.213-.537-1.213-1.2 0-.663.543-1.2 1.212-1.2h4.851c.67 0 1.213.537 1.213 1.2 0 .663-.543 1.2-1.213 1.2z" fill="#0266AB"/></g><path d="M26.946 36.794h1.214V47.62h-1.214zM6.43 46.685l1.125-.457 1.711 4.212-1.125.457zm39.766 1.799l1.99-3.576 1.05.585-1.99 3.576zm-30.725-7.757l1.177-.299 2.043 8.045-1.177.299zm20.806 6.993l2.162-8.685 1.167.291-2.162 8.684zm-9.331 59.443h1.214v10.826h-1.214zm-19.76 3.647l1.486-4.342 1.138.39-1.486 4.342zm46.347.588l1.166-.352 1.176 3.89-1.166.353zm-37.366 2.601l1.702-6.959 1.169.286-1.702 6.959zm20.133-6.817l1.187-.253 1.593 7.495-1.187.252z" fill="#0266AB" fill-rule="nonzero"/><rect fill="#0266AB" fill-rule="nonzero" x="373" y="341" width="6" height="29" rx="1.5"/><rect fill="#0266AB" fill-rule="nonzero" x="363" y="351" width="6" height="19" rx="1.5"/><rect fill="#0266AB" fill-rule="nonzero" x="352" y="347" width="6" height="23" rx="1.5"/><rect fill="#0266AB" fill-rule="nonzero" x="342" y="358" width="6" height="12" rx="1.5"/><path d="M360.93 390c-16.12-.032-30.253-10.777-34.596-26.301-4.343-15.525 2.164-32.044 15.928-40.436 13.763-8.392 31.427-6.61 43.238 4.36 11.81 10.972 14.888 28.458 7.533 42.803a35.78 35.78 0 01-32.103 19.573zm.097-70.818a34.973 34.973 0 00-30.957 18.959c-7.06 13.845-4.061 30.696 7.343 41.254 11.404 10.558 28.435 12.25 41.695 4.145 13.26-8.106 19.518-24.036 15.321-39-4.196-14.964-17.825-25.317-33.366-25.346l-.036-.012z" fill="#0266AB" fill-rule="nonzero"/><path fill="#0266AB" fill-rule="nonzero" d="M334.851 398.03l6.85-13.344 4.448 2.283-6.85 13.345z"/><path d="M333.609 395.647l8.714 4.452-15.654 30.496-.086.159v.17a2.824 2.824 0 01-.196.537 3.1 3.1 0 01-2.888 1.367 6.786 6.786 0 01-3.06-.781 6.478 6.478 0 01-2.803-2.647 2.773 2.773 0 01-.183-2.513c.087-.17.199-.325.33-.464l.11-.122.086-.158 15.654-30.496h-.024zm-.502-1.647l-16.217 31.533c-.21.217-.388.464-.527.732-1.126 2.196.453 5.233 3.525 6.807a8.075 8.075 0 003.61.914 4.251 4.251 0 003.979-2.037c.143-.268.246-.556.306-.854L344 399.575 333.107 394z" fill="#0266AB" fill-rule="nonzero"/><ellipse fill="#0483DA" fill-rule="nonzero" transform="rotate(-62.85 338.5 397)" cx="338.5" cy="397" rx="4.5" ry="6"/><path d="M582.906 72c-16.117-.043-30.242-10.794-34.577-26.319-4.334-15.524 2.178-32.038 15.943-40.424 13.764-8.386 31.425-6.6 43.232 4.37 11.808 10.973 14.883 28.456 7.53 42.799a35.756 35.756 0 01-32.128 19.573zm.121-70.782c-17.618-.02-32.466 13.142-34.56 30.635-2.096 17.494 9.225 33.79 26.349 37.93 17.124 4.14 34.639-5.182 40.768-21.7 6.128-16.518-1.066-35.01-16.747-43.042a34.803 34.803 0 00-15.81-3.823zM477.517 76a9.472 9.472 0 01-9.172-7.115 9.982 9.982 0 01-2.667 1.375 10.37 10.37 0 01-12.34-4.727 10.354 10.354 0 012.337-13 10.34 10.34 0 01.755-12.631 10.359 10.359 0 0112.422-2.454c.3-7.048 6.169-12.57 13.226-12.446 7.058.124 12.728 5.85 12.78 12.904a10.346 10.346 0 014.115 20.114c-.377.126-.76.23-1.147.314a7.678 7.678 0 01-2.57 7.93 7.691 7.691 0 01-8.29.92 9.47 9.47 0 01-9.45 8.816zm-8.761-8.803h.205a.627.627 0 01.386.482c.074.5.191.992.35 1.472a8.255 8.255 0 009.359 5.496 8.25 8.25 0 006.715-8.523.603.603 0 01.313-.555.592.592 0 01.628 0 6.496 6.496 0 007.59-.176 6.485 6.485 0 002.233-7.252.771.771 0 010-.591c.096-.157.217-.338.398-.362a9.14 9.14 0 10-2.63-18.088.628.628 0 01-.496-.145.603.603 0 01-.193-.482 11.641 11.641 0 00-.603-4.414 11.803 11.803 0 00-13.325-7.676 11.795 11.795 0 00-9.603 12.005.616.616 0 01-.93.543 9.14 9.14 0 00-11.63 1.55 9.124 9.124 0 00-.509 11.715.639.639 0 01-.12.856 9.138 9.138 0 002.273 15.927 9.152 9.152 0 009.215-1.722.604.604 0 01.374-.06z" fill="#0266AB" fill-rule="nonzero"/><path d="M482.07 54.693l-1.934-2.444-2.032.953a6.232 6.232 0 00-.612-.367l-.183-2.432-3.121-.403-.771 2.114a7.732 7.732 0 00-1.016.257l-1.848-1.601-2.448 1.93 1.04 2.225c-.148.22-.283.448-.403.685l-2.35.22-.392 3.116 2.19.733c.055.311.133.618.233.917l-1.53 1.858 1.934 2.444 2.154-1.076c.29.196.597.364.918.502l.208 2.273 3.133.403.76-2.285c.232 0 .464-.123.697-.196l1.689 1.393 2.448-1.93-.98-1.956c.175-.27.33-.552.466-.843l2.288-.16.392-3.116-2.203-.806a6.238 6.238 0 00-.22-.783l1.493-1.625zm-5.19 6.893a3.897 3.897 0 01-4.314.3 3.885 3.885 0 01.912-7.124 3.895 3.895 0 014.887 4.243 3.873 3.873 0 01-1.485 2.58zM491 41.483l-1.022-3.008-2.24.247a5.065 5.065 0 00-.468-.555l.616-2.306-2.844-1.405-1.416 1.763a5.999 5.999 0 00-1.046-.086L481.349 34l-2.991 1.01.258 2.466c-.212.16-.413.333-.603.518l-2.314-.555-1.404 2.848 1.847 1.418a6.05 6.05 0 00-.074.95L474 43.886l1.022 3.008 2.4-.308c.214.276.449.535.702.776l-.53 2.232L480.426 51l1.477-1.923c.242.018.485.018.726 0l1.157 1.886 2.992-1.01-.283-2.195a7.29 7.29 0 00.726-.641l2.228.591 1.403-2.847-1.834-1.48v-.826L491 41.483zm-7.189 4.857a3.899 3.899 0 01-4.188-1.14 3.912 3.912 0 01-.545-4.312 3.901 3.901 0 017.195.521 3.91 3.91 0 01-2.462 4.931z" fill="#096AAD" fill-rule="nonzero"/><path d="M110.777 122.161v5.643H85.223v-5.643h25.554zm.135-1.161H85.076c-.287 0-.563.11-.765.303a.996.996 0 00-.31.73L84 129h28v-6.967c0-.57-.487-1.033-1.088-1.033z" fill="#0483DA" fill-rule="nonzero"/><path d="M117.643 127H79.345c-.746 0-1.345.34-1.345.76v.48c0 .42.599.76 1.345.76h38.298c.746 0 1.357-.34 1.357-.76v-.48c0-.42-.611-.76-1.357-.76z" fill="#2C4A74" fill-rule="nonzero"/><path d="M117.643 127H79.345c-.746 0-1.345.34-1.345.76v.48c0 .42.599.76 1.345.76h38.298c.746 0 1.357-.34 1.357-.76v-.48c0-.42-.611-.76-1.357-.76z" fill="#0483DA" fill-rule="nonzero"/><path d="M98 116c-9.941 0-18-8.185-18-18.281V77h36v20.719C116 107.815 107.941 116 98 116zM81.2 78.219v19.5c-.035 8.76 6.5 16.11 15.084 16.965.552 0 1.128.085 1.692.085 9.278 0 16.8-7.64 16.8-17.062v-19.5l-33.576.012z" fill="#0266AB" fill-rule="nonzero"/><path d="M117.643 77H79.345c-.746 0-1.345.34-1.345.76v.49c0 .41.599.75 1.345.75h38.298c.746 0 1.357-.34 1.357-.75v-.51c0-.4-.611-.74-1.357-.74z" fill="#2C4A74" fill-rule="nonzero"/><path d="M117.643 77.02H79.345c-.746 0-1.345.336-1.345.752v.485c0 .406.599.743 1.345.743h38.298c.746 0 1.357-.337 1.357-.743v-.505c0-.415-.611-.752-1.357-.752v.02z" fill="#0483DA" fill-rule="nonzero"/><path fill="#0266AB" fill-rule="nonzero" d="M97.994 87L91 91.006v8L97.994 103 105 99.006v-8zm214.99-21.08a.971.971 0 01-.728-1.63 1.005 1.005 0 011.416 0c.312.279.413.72.252 1.104a.998.998 0 01-.97.605l.03-.079zm3.179-2.92a1.085 1.085 0 01-.793-.316 1.238 1.238 0 01-.083-1.676l.071-.085c.223-.23.525-.36.84-.36.316 0 .618.13.84.36a1.237 1.237 0 010 1.712 1.26 1.26 0 01-.875.365zm3.147-3.389a1.183 1.183 0 01-1.045-.714 1.24 1.24 0 01.17-1.277l.083-.085a1.162 1.162 0 011.668 0c.224.228.35.538.35.862 0 .324-.126.634-.35.862a1.25 1.25 0 01-.876.4v-.048zm3.148-3.388a1.085 1.085 0 01-.793-.316 1.238 1.238 0 01-.083-1.676l.083-.085a1.162 1.162 0 011.668 0c.224.228.35.539.35.863 0 .323-.126.634-.35.862a1.25 1.25 0 01-.875.352zm3.147-3.376a1.183 1.183 0 01-1.056-.717 1.24 1.24 0 01.18-1.287l.083-.085a1.163 1.163 0 011.674-.03c.471.466.484 1.235.03 1.718a1.262 1.262 0 01-.911.4zm3.147-3.388a1.097 1.097 0 01-.792-.316 1.238 1.238 0 01-.083-1.676l.07-.085a1.167 1.167 0 011.68-.049c.478.463.5 1.235.048 1.725a1.309 1.309 0 01-.923.4zM332.003 46a.952.952 0 01-.68-.266 1.027 1.027 0 01-.062-1.432 1.013 1.013 0 011.443 0 1.027 1.027 0 010 1.442 1.063 1.063 0 01-.7.256zm19.78 41.219v21.452a.11.11 0 01-.097.11h-37.372a.11.11 0 01-.097-.11V87.22h37.566zM353 86h-40v22.671c0 .73.586 1.322 1.314 1.329h37.372a1.327 1.327 0 001.314-1.329V86z"/><path d="M329.558 110h-3.79l-6.65 9.924a.692.692 0 00-.037.712c.12.226.355.367.61.364h3.579a.707.707 0 00.572-.3l5.716-8.548L331 110h-1.442z" fill="#0483DA" fill-rule="nonzero"/><path d="M334.925 110H330v9.366c0 .35.31.634.691.634h3.618c.382 0 .691-.284.691-.634v-9.32l-.075-.046z" fill="#0266AB" fill-rule="nonzero"/><path d="M346.911 119.97L340.23 110H335l7.17 10.698a.7.7 0 00.575.302h3.59a.688.688 0 00.577-.353.694.694 0 000-.678zM352.796 87h-39.592c-.665 0-1.204-.448-1.204-1s.54-1 1.204-1h39.592c.665 0 1.204.448 1.204 1s-.54 1-1.204 1zM183.56 65.195l24.227 6.495-4.324 16.143-24.24-6.483 4.336-16.155zm0-1.194a1.195 1.195 0 00-1.195.883L178.04 81.04a1.194 1.194 0 00.836 1.457l24.24 6.495c.103.012.207.012.31 0a1.195 1.195 0 001.195-.883l4.337-16.143a1.193 1.193 0 00-.848-1.469l-24.228-6.483a.98.98 0 00-.31 0l-.013-.012z" fill="#0483DA" fill-rule="nonzero"/><path fill="#0483DA" fill-rule="nonzero" d="M187.56 84.547l4.914-18.353.966.259-4.914 18.353zm9 2l4.914-18.353.966.259-4.914 18.353zm-60.965-34.328l24.215 6.47-4.336 16.144-24.228-6.496 4.325-16.142.024.024zM135.57 51a1.195 1.195 0 00-1.195.883l-4.337 16.155a1.194 1.194 0 00.849 1.456l24.24 6.496c.102.012.207.012.31 0a1.195 1.195 0 001.194-.884l4.325-16.142a1.193 1.193 0 00-.836-1.469l-24.204-6.424a.896.896 0 00-.31 0L135.57 51z"/><path fill="#0483DA" fill-rule="nonzero" d="M139.56 71.547l4.914-18.353.966.259-4.914 18.353zm9 2l4.914-18.353.966.259-4.914 18.353z"/><path d="M114.89 102H114v-.673a16.91 16.91 0 00.308-3.2V85H122v9.633c-.006 4.062-3.184 7.354-7.11 7.367zm.57-15.82v11.9c0 .914-.068 1.825-.205 2.728 3.155-.2 5.615-2.905 5.615-6.175v-8.452h-5.41zM80.9 102c-4.358 0-7.893-3.296-7.9-7.367V85h8.532v13.08c.002 1.074.112 2.145.329 3.2l.139.673h-.733L80.9 102zm-6.636-15.82v8.453c.007 3.272 2.735 5.975 6.232 6.175a16.432 16.432 0 01-.228-2.727v-11.9h-6.004z" fill="#0266AB" fill-rule="nonzero"/><path d="M100.806 116.548v4.321h-5.612v-4.167h.454c.609.06 1.194.096 1.862.096a18.37 18.37 0 003.296-.31v.06zM102 115a17.46 17.46 0 01-4.49.607 17.83 17.83 0 01-3.51-.369V122h8v-7z" fill="#0483DA" fill-rule="nonzero"/><path d="M164.37 80l-.37 1.611c1.607.106 3.18.578 4.63 1.389l.37-1.611L164.37 80zm13.457-40.755c-3.299-.903-6.753.756-8.182 3.928-1.43 3.172-.418 6.937 2.395 8.916l-.713 2.715L175.839 56l.713-2.715c3.397-.282 6.104-3.02 6.418-6.49.314-3.471-1.855-6.671-5.143-7.586v.036zm.432 7.558a2.356 2.356 0 01-1.955 1.75 2.322 2.322 0 01-2.329-1.178 2.437 2.437 0 01.174-2.652 2.309 2.309 0 012.462-.85 2.344 2.344 0 011.439 1.106 2.44 2.44 0 01.244 1.824h-.035zM179.677 75L181 70.009 177.31 69 176 74.004l3.677.996zM160.31 65L159 69.991 162.677 71 164 66.009z" fill="#0266AB" fill-rule="nonzero"/><path d="M406 36.2a4.8 4.8 0 110 9.6 4.8 4.8 0 010-9.6zm0-1.2a6 6 0 100 12 6 6 0 000-12z" fill="#0483DA" fill-rule="nonzero"/><path d="M533.444 146.052l-1.552-2.262a1.407 1.407 0 10-2.322 1.588l1.552 2.262a25.26 25.26 0 01-16.395 3.464l.505-2.694a1.408 1.408 0 10-2.767-.53l-.505 2.707a25.26 25.26 0 01-14.025-9.154l2.261-1.552a1.41 1.41 0 00-1.6-2.322l-2.261 1.552a25.261 25.261 0 01-3.452-16.395l2.694.505a1.407 1.407 0 10.517-2.767l-2.694-.505a25.165 25.165 0 019.154-14.026l1.54 2.262c.214.302.537.509.901.577a1.407 1.407 0 001.431-2.177l-1.55-2.262a25.26 25.26 0 0116.382-3.452l-.505 2.695a1.413 1.413 0 002.779.517l.505-2.695a25.26 25.26 0 0114.026 9.154l-2.262 1.54a1.407 1.407 0 00-.36 1.96c.205.314.532.528.901.59.364.073.742-.006 1.047-.216l2.261-1.552a25.189 25.189 0 013.465 16.383l-2.695-.505a1.413 1.413 0 00-.517 2.779l2.694.505a25.26 25.26 0 01-9.153 14.026zM523.7 95.53a30.998 30.998 0 00-31.279 47.984 30.998 30.998 0 0056.046-11.813c3.143-16.829-7.942-33.022-24.767-36.183v.012z" fill="#0266AB" fill-rule="nonzero"/><path d="M524.16 67v1.202c1.333 0 2.663.121 3.973.36 11.702 2.182 19.41 13.326 17.228 24.909l-2.37 13.476a31.835 31.835 0 00-5.187-5.254l1.555-9.352a15.15 15.15 0 00-2.44-11.444 15.455 15.455 0 00-9.903-6.384 15.073 15.073 0 00-2.843-.264c-7.441.003-13.824 5.252-15.187 12.49l-1.555 9.352a32.422 32.422 0 00-6.815 3.066l2.369-13.548c1.906-10.088 10.804-17.402 21.176-17.407V67zm0 0c-10.924.049-20.28 7.758-22.305 18.38L499 101.706a31.614 31.614 0 019.573-4.688l1.677-10.074c1.262-6.66 7.136-11.487 13.984-11.492.88-.002 1.759.078 2.624.24 7.716 1.446 12.8 8.792 11.371 16.433l-1.689 10.074a31.38 31.38 0 017.217 7.802l2.855-16.325c2.3-12.238-5.857-24.005-18.224-26.29a22.793 22.793 0 00-4.203-.385h-.024z" fill="#0266AB" fill-rule="nonzero"/><path fill="#0483DB" fill-rule="nonzero" d="M539 113.04l.18.16-.12-.2zm25.952-11.95c-.496-4.012-3.096-7.472-6.845-9.108a11.78 11.78 0 00-11.438 1.13c.006.122.006.245 0 .368L544 108.712a30.713 30.713 0 012.68 5.288h17.692c3.527.037 6.451-2.683 6.62-6.157.17-3.473-2.478-6.457-5.992-6.753h-.048zm-78.009 18.77A30.332 30.332 0 01494 105.458a10.274 10.274 0 00-9.499-2.062c-3.316.948-5.916 3.49-6.9 6.748a6.137 6.137 0 00-1.027-.083c-3.63 0-6.574 2.896-6.574 6.47 0 3.572 2.943 6.469 6.574 6.469h9.934a30.78 30.78 0 01.435-3.14z"/><path d="M396.645 261c-.295.11-.576.254-.837.425-1.796 1.182-3.42 4.727-3.69 5.471a1.485 1.485 0 00.16 1.442 1.57 1.57 0 001.328.662c.8 0 4.921-.107 6.68-1.277.257-.174.496-.372.714-.59L396.645 261zm199.993 7.903l4.293-.31A9.54 9.54 0 01611.4 279.06l-.31 4.291a36.21 36.21 0 012.23 4.649l.631-8.762a12.336 12.336 0 00-3.183-9.417 12.2 12.2 0 00-10.016-3.767l-8.752.62a38.565 38.565 0 014.638 2.23zM541.633 288a37.947 37.947 0 012.234-4.659l-.31-4.3a9.555 9.555 0 012.75-7.74 9.562 9.562 0 017.742-2.75l4.302.311a38.654 38.654 0 014.649-2.234l-8.724-.573a12.216 12.216 0 00-10.038 3.775 12.41 12.41 0 00-3.191 9.437l.586 8.733zm71.687 29a35.427 35.427 0 01-2.23 4.648l.31 4.314a9.571 9.571 0 01-2.749 7.734 9.527 9.527 0 01-7.72 2.745l-4.293-.298a40.419 40.419 0 01-4.638 2.234l8.752.622h1.001a12.126 12.126 0 009.015-3.812 12.408 12.408 0 003.183-9.452L613.32 317zm-54.959 19.096l-4.292.298a9.542 9.542 0 01-7.721-2.739 9.534 9.534 0 01-2.75-7.715l.31-4.303A36.947 36.947 0 01541.68 317l-.632 8.75a12.406 12.406 0 003.184 9.428 12.19 12.19 0 0010.016 3.767l8.753-.62a40.466 40.466 0 01-4.639-2.229z" fill="#0483DA" fill-rule="nonzero"/><path d="M465 302c-2.35 0-4.712-.106-7-.332v-1.33a72.468 72.468 0 0114 0v1.33c-2.288.332-4.65.332-7 .332zm-.5 21c-16.544 0-29.5-5.101-29.5-11.63a5.848 5.848 0 011.613-3.854l.446-.516.458.504c3.816 4.285 14.653 7.202 26.983 7.202s23.167-2.88 26.983-7.202l.458-.504.446.516A5.848 5.848 0 01494 311.37c0 6.53-12.956 11.63-29.5 11.63zm-27.393-14.188a4.408 4.408 0 00-.903 2.557c0 5.654 12.956 10.43 28.296 10.43s28.296-4.8 28.296-10.43a4.408 4.408 0 00-.903-2.557c-4.395 4.238-15.232 7.058-27.393 7.058-12.161 0-22.998-2.82-27.393-7.058zM464.5 345c-16.544 0-29.5-5.02-29.5-11.417a5.919 5.919 0 011.939-4.147l.433-.436.434.424c4.057 4.03 14.786 6.728 26.694 6.728s22.637-2.698 26.694-6.728l.434-.424.433.436a5.919 5.919 0 011.939 4.147c0 6.363-12.956 11.417-29.5 11.417zm-27.092-14.315a4.543 4.543 0 00-1.204 2.898c0 5.55 12.956 10.239 28.296 10.239s28.296-4.713 28.296-10.239a4.543 4.543 0 00-1.204-2.898c-4.612 4.053-15.111 6.645-27.092 6.645-11.98 0-22.48-2.592-27.092-6.645zm-64.534-143.697a3.034 3.034 0 01-3.016-2.76l-4.845-55.204a2.99 2.99 0 01.691-2.202 3.021 3.021 0 012.058-1.063l9.848-.855-.557 4.084 1.126.964 1.744-.868 1.914 1.362 2.193-.868 1.477 1.205 1.333-.663.75-6.132L433.462 120l4.07 46.205c.044.47.275.904.642 1.205.367.307.842.459 1.32.421l1.212-.108a6.673 6.673 0 014.898 1.502 6.603 6.603 0 012.37 4.522 6.627 6.627 0 01-1.523 4.863 6.697 6.697 0 01-4.534 2.366L373.14 187l-.266-.012zm3.343-60.76l-8.358.736a1.78 1.78 0 00-1.211.638 1.777 1.777 0 00-.424 1.314l4.845 55.217c.043.477.275.919.646 1.226.37.307.848.456 1.328.412l68.776-6.024a5.448 5.448 0 003.701-1.911 5.39 5.39 0 001.253-3.956c-.27-2.977-2.905-5.179-5.899-4.928l-1.211.096a3.024 3.024 0 01-3.258-2.71l-3.961-45.013-43.69 3.808-.715 5.795-2.629 1.325-1.538-1.313-2.12.819-1.853-1.313-1.817.903-2.228-1.903.363-3.217z" fill="#0266AB" fill-rule="nonzero"/></g></g></g></svg>